<?xml version="1.0" encoding="utf-8"?>
<!-- Generator: Adobe Illustrator 25.2.1, SVG Export Plug-In . SVG Version: 6.00 Build 0)  -->
<svg version="1.1" id="Lager_1" xmlns="http://www.w3.org/2000/svg" xmlns:xlink="http://www.w3.org/1999/xlink" x="0px" y="0px"
	 viewBox="0 0 900 1700" style="enable-background:new 0 0 900 1700;" xml:space="preserve">
<style type="text/css">
	.eye0{fill:#E9E8E9;}
	.st1{fill:#6F7CDB;}
	.st2{fill:#FFFFFF;}
	.pupil{fill:#000;}
</style>
<polygon class="eye0" points="745.59,694.73 670.77,706.51 618.3,724.99 607.09,782.37 607.09,836.62 629.45,895.04 685.06,923.94 
	734.72,935.85 814.16,913.82 843.32,870 851.14,800.11 835.43,748.2 804.43,702.04 "/>
<g>
	<circle class="st1" cx="729.29" cy="815.36" r="35.29"/>
	<path d="M764.65,815.36c0.01,9.25-3.54,18.53-10.08,25.29c-3.23,3.39-7.21,6.08-11.53,7.92c-4.33,1.86-9.06,2.71-13.75,2.71
		c-4.7-0.06-9.38-1.07-13.66-2.92c-4.29-1.86-8.19-4.55-11.47-7.85c-3.25-3.33-5.9-7.24-7.71-11.53c-1.79-4.29-2.8-8.93-2.86-13.61
		c-0.05-4.67,0.78-9.38,2.55-13.73c1.75-4.36,4.38-8.37,7.7-11.72s7.3-6.04,11.65-7.87c4.35-1.84,9.09-2.73,13.8-2.74
		c4.71,0.03,9.45,0.93,13.78,2.8c4.33,1.86,8.29,4.56,11.53,7.96C761.09,796.83,764.72,806.1,764.65,815.36z M764.5,815.36
		c-0.05-4.61-0.97-9.21-2.81-13.42c-1.84-4.21-4.51-8.03-7.8-11.18c-6.58-6.32-15.55-9.93-24.6-9.91
		c-9.04,0.02-18.02,3.66-24.45,10.06c-3.21,3.19-5.82,7-7.6,11.18c-1.77,4.18-2.76,8.71-2.83,13.28
		c-0.16,9.14,3.52,18.35,10.11,24.77c6.5,6.52,15.7,10.03,24.77,9.9c9.09-0.05,18.04-3.72,24.62-10.05
		c3.29-3.16,5.96-6.98,7.8-11.19C763.56,824.58,764.49,819.97,764.5,815.36z"/>
</g>
<circle class="pupil" cx="729.29" cy="815.36" r="15.16"/>
<circle class="st2" cx="746.77" cy="823.44" r="2.44"/>
<circle class="st2" cx="740.47" cy="820.27" r="3.57"/>
</svg>
