<?xml version="1.0" encoding="utf-8"?>
<!-- Generator: Adobe Illustrator 25.2.1, SVG Export Plug-In . SVG Version: 6.00 Build 0)  -->
<svg version="1.1" id="Lager_1" xmlns="http://www.w3.org/2000/svg" xmlns:xlink="http://www.w3.org/1999/xlink" x="0px" y="0px"
	 viewBox="0 0 900 1700" style="enable-background:new 0 0 900 1700;" xml:space="preserve">
<style type="text/css">
	.nodes0{clip-path:url(#SVGID_2_);}
	.nodes1{fill:none;stroke:#A9B0E0;stroke-width:3;stroke-linecap:round;stroke-linejoin:round;stroke-miterlimit:10;}
	.nodes2{fill:#A9B0E0;}
</style>
<g>
	<defs>
		<rect id="SVGID_1_" width="900" height="1700"/>
	</defs>
	<clipPath id="SVGID_2_">
		<use xlink:href="#SVGID_1_"  style="overflow:visible;"/>
	</clipPath>
	<g class="nodes0">
		<polygon class="nodes1" points="286.82,1171.29 176.45,1340.05 201.23,1206.59 		"/>
		<polygon class="nodes1" points="320.61,978.84 333,752.15 282.32,900.47 		"/>
		<polygon class="nodes1" points="176.45,1340.05 102.12,1416.63 133.65,1339.97 		"/>
		<polyline class="nodes1" points="1.97,1435.22 102.12,1416.63 1.37,1391.86 		"/>
		<polyline class="nodes1" points="128.77,1163.61 65.37,1155.78 2.44,1185.44 		"/>
		<polyline class="nodes1" points="1.97,1233.81 74.52,1219.55 2.44,1185.44 128.77,1163.61 74.52,1219.55 1.37,1291.89
			102.12,1416.63 74.52,1219.55 133.65,1339.97 201.23,1206.59 320.61,978.84 286.82,1171.29 		"/>
		<polyline class="nodes1" points="74.52,1219.55 201.23,1206.59 128.77,1163.61 84.1,1048.77 97.61,1008.93 		"/>
		<polyline class="nodes1" points="1.97,993.73 35.15,860.65 68.33,969.89 97.61,1008.93 60.16,1019.91 84.1,1048.77 30.04,1064.24
			60.16,1019.91 1.97,1054.83 30.04,1064.24 1.37,1077.63 65.37,1155.78 1.97,1157.74 		"/>
		<polygon class="nodes1" points="1.97,993.73 60.16,1019.91 68.33,969.89 		"/>
		<polygon class="nodes1" points="1.97,716.95 35.15,860.65 62.14,758.64 		"/>
		<polygon class="nodes1" points="71.15,832.09 122.3,797.04 152.23,846.76 		"/>
		<polygon class="nodes1" points="152.23,846.76 223.75,832.09 207.42,809.81 		"/>
		<polyline class="nodes1" points="128.77,1163.61 320.61,978.84 97.61,1008.93 282.32,900.47 152.23,846.76 166.88,800.21
			122.3,797.04 		"/>
		<line class="nodes1" x1="65.37" y1="1155.78" x2="84.1" y2="1048.77"/>
		<polyline class="nodes1" points="35.15,860.65 71.15,832.09 62.14,758.64 160.99,757.79 66.36,793.08 166.88,800.21 		"/>
		<polyline class="nodes1" points="160.99,757.79 166.88,800.21 207.42,809.81 241.69,817.97 		"/>
		<polyline class="nodes1" points="166.88,800.21 273.31,793.08 223.75,832.09 		"/>
		<polyline class="nodes1" points="367.91,1096.64 333,1113.4 333,1051.91 299.79,1097.4 333,1113.4 		"/>
		<polyline class="nodes1" points="367.91,988.38 386.49,1048.77 333,1051.91 367.91,1096.64 386.49,1048.77 		"/>
		<polygon class="nodes1" points="333,752.15 346.26,736.74 360.31,766.18 		"/>
		<polyline class="nodes1" points="330.9,923.15 344.07,973.46 320.61,978.84 346.26,840 328.7,830.84 360.31,766.18 346.26,840 		"/>
		<polygon class="nodes1" points="333,1051.91 367.91,988.38 344.07,973.46 		"/>
		<polyline class="nodes1" points="152.23,846.76 97.61,1008.93 71.15,832.09 		"/>
		<polygon class="nodes1" points="333,553.41 286.82,390.62 273.31,517.23 		"/>
		<polygon class="nodes1" points="137.88,240.7 1.95,205.67 53.41,275.48 		"/>
		<polygon class="nodes1" points="53.41,275.48 2.25,413.63 116.84,390.62 		"/>
		<polyline class="nodes1" points="137.88,240.7 116.84,390.62 273.31,517.23 137.88,240.7 286.82,390.62 		"/>
		<polyline class="nodes1" points="282.32,900.47 273.31,793.08 333,752.15 333,553.41 273.31,793.08 273.31,517.23 196.72,707.67
			273.31,793.08 160.99,757.79 196.72,707.67 		"/>
		<path class="nodes1" d="M2.25,413.63"/>
		<polygon class="nodes1" points="102.12,1416.63 1.97,1639.63 160.99,1570.33 		"/>
		<polyline class="nodes1" points="235.95,1249.07 255.43,1333.07 102.12,1416.63 		"/>
		<polygon class="nodes1" points="160.99,1570.33 255.43,1333.07 569.77,1422.08 		"/>
		<polygon class="nodes1" points="569.77,1422.08 756.67,1541.17 569.77,1561.06 		"/>
		<polyline class="nodes1" points="845.88,1710.86 756.67,1541.17 676.37,1710.86 569.77,1561.06 246.43,1710.86 160.99,1570.33
			1.97,1710.86 		"/>
		<line class="nodes1" x1="569.77" y1="1561.06" x2="160.99" y2="1570.33"/>
		<polyline class="nodes1" points="320.61,978.84 333,1051.91 309.11,1044.34 		"/>
		<path class="nodes1" d="M1.97,716.95"/>
		<polygon class="nodes1" points="196.72,707.67 62.14,758.64 97.61,705.1 		"/>
		<polyline class="nodes1" points="1.97,716.95 97.61,705.1 2.25,413.63 		"/>
		<polyline class="nodes1" points="97.61,705.1 116.84,390.62 196.72,707.67 		"/>
		<circle class="nodes2" cx="273.31" cy="793.08" r="7.13"/>
		<circle class="nodes2" cx="207.42" cy="809.81" r="7.13"/>
		<circle class="nodes2" cx="241.69" cy="817.97" r="7.13"/>
		<circle class="nodes2" cx="152.23" cy="846.76" r="7.13"/>
		<circle class="nodes2" cx="166.88" cy="800.21" r="7.13"/>
		<circle class="nodes2" cx="120.8" cy="797.04" r="7.13"/>
		<circle class="nodes2" cx="71.15" cy="832.09" r="7.13"/>
		<circle class="nodes2" cx="35.15" cy="860.65" r="7.13"/>
		<circle class="nodes2" cx="62.14" cy="758.51" r="7.13"/>
		<circle class="nodes2" cx="67.6" cy="791.8" r="7.13"/>
		<circle class="nodes2" cx="160.99" cy="758.51" r="7.13"/>
		<circle class="nodes2" cx="196.72" cy="708.85" r="7.13"/>
		<circle class="nodes2" cx="273.31" cy="517.23" r="7.13"/>
		<circle class="nodes2" cx="333" cy="553.41" r="7.13"/>
		<circle class="nodes2" cx="286.82" cy="390.62" r="7.13"/>
		<circle class="nodes2" cx="116.84" cy="390.62" r="7.13"/>
		<circle class="nodes2" cx="137.88" cy="240.7" r="7.13"/>
		<circle class="nodes2" cx="54.2" cy="275.48" r="7.13"/>
		<circle class="nodes2" cx="97.61" cy="705.1" r="7.13"/>
		<circle class="nodes2" cx="333" cy="752.15" r="7.13"/>
		<circle class="nodes2" cx="346.65" cy="736.74" r="7.13"/>
		<circle class="nodes2" cx="360.31" cy="766.18" r="7.13"/>
		<circle class="nodes2" cx="329.01" cy="828.28" r="7.13"/>
		<circle class="nodes2" cx="282.32" cy="899.4" r="7.13"/>
		<circle class="nodes2" cx="320.61" cy="978.84" r="7.13"/>
		<circle class="nodes2" cx="333.85" cy="1053.14" r="7.13"/>
		<circle class="nodes2" cx="309.11" cy="1043.84" r="7.13"/>
		<circle class="nodes2" cx="299.79" cy="1096.64" r="7.13"/>
		<circle class="nodes2" cx="333" cy="1113.31" r="7.13"/>
		<circle class="nodes2" cx="366.87" cy="1096.64" r="7.13"/>
		<circle class="nodes2" cx="386.49" cy="1049.77" r="7.13"/>
		<circle class="nodes2" cx="367.91" cy="988.38" r="7.13"/>
		<circle class="nodes2" cx="97.61" cy="1008.93" r="7.13"/>
		<circle class="nodes2" cx="68.33" cy="971.7" r="7.13"/>
		<circle class="nodes2" cx="60.47" cy="1019.91" r="7.13"/>
		<circle class="nodes2" cx="29.39" cy="1064.24" r="7.13"/>
		<circle class="nodes2" cx="65.37" cy="1155.36" r="7.13"/>
		<circle class="nodes2" cx="128.77" cy="1163.61" r="7.13"/>
		<circle class="nodes2" cx="201.23" cy="1206.34" r="7.13"/>
		<circle class="nodes2" cx="286.82" cy="1171.29" r="7.13"/>
		<circle class="nodes2" cx="236.3" cy="1250.51" r="7.13"/>
		<circle class="nodes2" cx="74.52" cy="1219.55" r="7.13"/>
		<circle class="nodes2" cx="132.15" cy="1339.98" r="7.13"/>
		<circle class="nodes2" cx="102.12" cy="1415.51" r="7.13"/>
		<circle class="nodes2" cx="255.43" cy="1332.85" r="7.13"/>
		<circle class="nodes2" cx="160.99" cy="1570.33" r="7.13"/>
		<circle class="nodes2" cx="569.77" cy="1422.08" r="7.13"/>
		<circle class="nodes2" cx="569.77" cy="1561.06" r="7.13"/>
		<circle class="nodes2" cx="756.67" cy="1541.17" r="7.13"/>
		<circle class="nodes2" cx="178.77" cy="1339.97" r="7.13"/>
		<circle class="nodes2" cx="84.1" cy="1049.22" r="7.13"/>
		<circle class="nodes2" cx="331.79" cy="926.19" r="7.13"/>
		<circle class="nodes2" cx="343.27" cy="974.78" r="7.13"/>
		<circle class="nodes2" cx="346.05" cy="842.54" r="7.13"/>
	</g>
</g>
</svg>
