<?xml version="1.0" standalone="no"?>
<!DOCTYPE svg PUBLIC "-//W3C//DTD SVG 20010904//EN"
 "http://www.w3.org/TR/2001/REC-SVG-20010904/DTD/svg10.dtd">
<svg version="1.0" xmlns="http://www.w3.org/2000/svg"
 width="1600.000000pt" height="1600.000000pt" viewBox="0 0 1600.000000 1600.000000"
 preserveAspectRatio="xMidYMid meet">
<metadata>
Created by potrace 1.14, written by Peter Selinger 2001-2017
</metadata>
<g transform="translate(0.000000,1600.000000) scale(0.100000,-0.100000)"
fill="#000000" stroke="none">
<path d="M7600 15983 c-485 -32 -726 -61 -1086 -129 -1961 -369 -3710 -1458
-4912 -3059 -862 -1148 -1394 -2489 -1551 -3910 -37 -328 -45 -504 -45 -895 0
-388 8 -545 45 -885 153 -1413 685 -2758 1544 -3905 208 -277 578 -710 607
-710 13 0 866 459 1268 683 330 184 873 494 1145 654 94 56 171 100 173 98 1
-1 -16 -29 -38 -62 -86 -129 -172 -404 -205 -658 -23 -172 -23 -508 0 -700 61
-517 220 -1021 429 -1365 166 -272 408 -539 696 -769 61 -49 116 -78 127 -67
1 1 -44 37 -100 81 -127 100 -388 354 -485 472 -279 339 -441 672 -561 1152
-76 304 -103 516 -103 811 0 388 63 718 185 969 48 99 116 173 228 249 80 54
258 152 276 152 6 0 12 -60 16 -149 l7 -150 -55 -106 c-61 -119 -104 -245
-132 -380 -24 -124 -24 -448 0 -590 56 -320 167 -635 357 -1010 159 -314 252
-447 436 -625 248 -239 563 -417 945 -536 286 -88 651 -144 942 -144 l127 0 0
-250 0 -250 195 0 195 0 607 536 c335 295 619 547 633 561 l25 24 -35 -15
c-19 -8 -341 -148 -715 -311 -374 -163 -686 -299 -692 -302 -44 -18 7 105 452
1097 256 569 465 1040 465 1047 0 6 -4 14 -9 18 -8 4 -784 -134 -898 -160 -17
-4 -23 -1 -23 13 0 16 48 27 423 96 232 42 430 80 440 84 12 5 -138 46 -422
116 -382 94 -441 111 -441 127 0 10 5 16 13 14 28 -10 874 -215 886 -215 7 0
11 6 8 13 -3 8 -208 265 -456 572 -415 514 -451 561 -451 596 0 36 13 50 322
353 177 173 320 317 317 320 -3 3 -141 -21 -307 -54 -166 -33 -309 -60 -317
-60 -24 0 -17 27 8 33 12 3 153 31 312 62 160 31 293 60 297 63 4 4 -137 75
-312 157 -263 123 -319 154 -319 170 0 16 36 37 192 109 106 50 226 107 267
128 71 36 73 37 35 33 -22 -2 -142 -7 -267 -10 -194 -5 -228 -4 -228 8 0 20
44 27 164 27 55 0 165 3 243 7 119 5 143 9 145 22 2 9 -116 162 -274 355 -230
281 -278 345 -278 371 0 29 5 33 95 74 67 31 95 49 93 59 -2 10 -37 27 -96 46
-140 46 -141 44 158 222 192 114 249 153 248 167 -2 13 -70 48 -250 129 l-248
111 0 51 c0 31 56 275 144 630 141 567 143 579 125 597 -24 24 -24 60 1 91
l20 26 -145 626 c-80 346 -145 649 -145 676 0 41 3 49 23 53 12 3 202 27 422
53 l400 49 26 28 27 29 -53 162 c-485 1469 -845 2590 -845 2631 0 37 50 182
231 672 209 564 230 627 219 648 -7 13 -10 37 -7 52 5 25 -22 66 -219 333
-144 196 -224 313 -224 328 0 16 4 22 14 19 7 -3 289 -76 625 -163 600 -154
613 -157 641 -141 41 25 75 21 100 -10 16 -20 20 -36 16 -58 -6 -29 24 -60
674 -710 655 -655 681 -679 714 -677 63 6 95 -69 51 -118 -11 -13 18 -126 193
-741 201 -709 206 -726 234 -737 54 -20 63 -101 13 -124 l-25 -11 0 -904 c0
-958 -1 -934 44 -884 13 14 16 28 12 48 -9 40 25 83 65 83 55 0 86 -59 58
-112 -10 -18 -5 -34 27 -100 30 -63 42 -78 60 -78 48 0 78 -63 50 -105 -9 -14
-20 -25 -24 -25 -28 -1 -38 -38 -92 -316 l-56 -299 23 -22 c39 -37 27 -89 -27
-116 -23 -11 -28 -30 -81 -322 -32 -171 -60 -322 -63 -337 -4 -20 -1 -28 9
-28 19 0 45 -39 45 -67 0 -13 -9 -32 -20 -43 l-20 -20 42 -162 c38 -144 46
-164 75 -191 18 -17 33 -38 33 -48 0 -25 108 -91 135 -82 55 19 105 -9 105
-60 0 -17 -7 -38 -16 -48 -15 -16 -10 -36 57 -253 57 -186 76 -236 89 -236 25
0 50 -33 50 -66 0 -39 -9 -50 -51 -68 -33 -14 -38 -23 -97 -177 -42 -110 -59
-166 -52 -173 16 -16 12 -72 -8 -89 -20 -18 -87 -23 -97 -7 -3 5 -51 -13 -110
-43 -86 -42 -105 -56 -105 -74 0 -26 -44 -63 -75 -63 -26 0 -65 39 -65 66 0
15 -24 31 -96 67 -110 55 -148 57 -158 9 -14 -65 -96 -543 -96 -557 0 -8 9
-24 20 -35 41 -41 13 -106 -50 -119 -32 -6 -48 -27 -242 -324 -173 -264 -206
-321 -198 -337 15 -28 12 -76 -5 -90 -8 -7 -15 -20 -15 -29 0 -18 147 -652
152 -655 2 -1 15 -7 31 -14 17 -7 29 -22 33 -39 6 -28 9 -29 992 -307 543
-154 1205 -341 1472 -417 l484 -137 24 19 c14 10 33 19 42 19 29 0 61 -33 69
-69 5 -28 18 -41 70 -75 l64 -40 54 59 c1160 1279 1865 2827 2053 4508 37 334
45 488 45 902 0 417 -8 571 -46 905 -237 2080 -1262 3957 -2894 5295 -357 293
-819 604 -1230 827 -1037 564 -2168 886 -3365 958 -147 9 -744 11 -860 3z
m-843 -3240 c-8 -7 -37 9 -31 19 3 5 12 4 20 -3 8 -6 13 -14 11 -16z m73 -5
c0 -10 -36 7 -45 22 -4 6 5 5 19 -2 14 -6 26 -15 26 -20z m-364 -10 c24 -17
42 -33 40 -36 -3 -2 -31 8 -63 22 -44 21 -54 29 -43 36 20 13 16 14 66 -22z
m217 7 c49 -20 166 -36 186 -25 12 6 42 -3 96 -27 44 -19 92 -36 106 -38 14
-1 47 -18 73 -38 27 -20 65 -44 85 -54 22 -11 48 -35 64 -62 34 -54 49 -46 18
9 -31 55 -4 55 34 0 16 -23 56 -63 89 -90 34 -27 86 -69 116 -94 66 -54 83
-51 20 4 l-45 39 38 -9 c54 -12 46 5 -10 21 -29 8 -65 29 -90 52 -52 47 -58
72 -8 28 42 -36 151 -94 168 -88 7 2 -13 16 -44 30 -30 15 -73 43 -95 63 l-39
35 45 -25 c159 -89 201 -105 245 -95 27 6 28 7 5 8 -14 0 -43 13 -65 28 -35
24 -37 27 -18 34 21 8 96 -13 121 -33 7 -6 15 -8 19 -4 4 3 -2 13 -13 22 -19
15 -19 16 1 10 15 -5 13 0 -9 18 -39 32 -25 54 15 25 23 -16 33 -19 42 -10 16
16 23 14 35 -14 9 -20 12 -820 12 -3231 l0 -3206 -62 7 c-149 16 -224 55 -315
166 -123 149 -176 183 -293 185 l-75 2 75 -7 c41 -4 90 -15 108 -25 46 -24
106 -80 158 -147 l44 -58 -19 -33 c-11 -18 -26 -65 -35 -104 -14 -71 -45 -151
-73 -189 -14 -19 -15 -19 -8 4 5 16 4 21 -4 17 -6 -4 -11 -17 -11 -30 0 -12
-12 -38 -26 -57 -23 -29 -26 -31 -19 -9 4 14 9 39 12 55 4 26 2 24 -19 -15
-63 -119 -102 -179 -110 -167 -6 9 -8 8 -8 -4 0 -8 -11 -30 -25 -49 -29 -40
-31 -36 -8 22 22 59 34 73 45 56 6 -8 7 -4 2 12 -3 14 -3 22 1 18 4 -3 20 19
37 50 16 31 38 66 47 77 10 11 17 25 14 32 -3 7 3 9 16 6 15 -4 21 -1 21 12 0
14 -3 15 -15 5 -12 -10 -15 -10 -15 1 0 11 -2 11 -10 -1 -8 -12 -10 -12 -10 5
1 11 8 29 16 40 16 20 16 19 9 -4 -5 -16 -4 -21 4 -17 6 4 11 20 11 36 0 31
15 48 23 28 3 -7 6 -3 6 10 1 13 5 31 10 41 7 13 6 18 -4 18 -7 0 -11 -7 -7
-15 3 -10 1 -13 -6 -8 -8 5 -10 1 -5 -10 4 -11 2 -15 -4 -11 -5 3 -16 -5 -23
-19 -8 -15 -19 -23 -28 -19 -8 3 -21 0 -29 -7 -11 -9 -17 -9 -24 3 -7 10 -7 5
-3 -15 5 -22 4 -27 -6 -21 -8 5 -11 3 -8 -6 3 -8 -2 -20 -9 -27 -8 -8 -11 -23
-8 -33 4 -12 -2 -26 -18 -41 -28 -27 -53 -69 -48 -83 1 -5 -1 -7 -5 -2 -4 4
-16 0 -26 -10 -16 -14 -18 -14 -18 0 0 8 -3 23 -7 33 -4 12 -3 15 5 10 7 -4
12 -1 12 9 0 8 16 48 36 88 36 69 51 132 35 142 -5 2 -13 -13 -20 -35 -10 -33
-48 -77 -58 -66 -2 1 4 19 12 39 22 53 17 60 -6 9 -20 -47 -18 -65 7 -55 14 5
-11 -53 -50 -116 -15 -23 -29 4 -16 29 10 18 9 21 -1 15 -9 -6 -10 -3 -5 11
26 63 54 154 46 149 -5 -3 -15 -25 -21 -48 -11 -41 -70 -170 -75 -164 -2 1 11
44 28 94 26 77 29 96 20 115 l-12 23 6 -23 c12 -48 -70 -254 -120 -301 -36
-34 -32 -18 12 53 41 64 82 151 82 170 -1 6 -12 -10 -26 -36 -13 -27 -27 -48
-30 -48 -3 0 -2 17 1 38 l5 37 -14 -42 c-27 -82 -117 -209 -139 -196 -6 3 -8
2 -5 -3 3 -5 -19 -34 -49 -64 -30 -30 -52 -49 -49 -42 16 28 -4 9 -24 -24 -12
-19 -25 -33 -28 -30 -3 3 -16 -10 -29 -29 -13 -19 -28 -35 -33 -35 -6 0 -9 -4
-8 -9 4 -14 -21 -48 -87 -122 -36 -39 -26 -31 24 20 62 64 82 80 77 61 -4 -18
-2 -16 9 7 8 17 19 34 25 38 6 3 7 11 4 17 -4 6 -3 9 2 5 5 -3 27 5 48 18 23
14 33 25 26 30 -6 4 -19 0 -29 -9 -28 -25 -43 -19 -17 8 32 31 57 41 49 18 -4
-11 6 -6 25 12 18 16 30 32 27 35 -7 7 37 51 46 46 4 -3 16 14 28 37 11 24 31
49 43 57 22 14 22 14 5 -10 -9 -13 -29 -41 -42 -62 -14 -21 -30 -35 -34 -32
-5 2 -14 -2 -21 -10 -10 -12 -10 -15 1 -15 8 0 4 -9 -9 -23 -12 -13 -19 -27
-15 -32 5 -4 2 -5 -6 0 -10 6 -12 4 -6 -5 5 -9 4 -11 -3 -6 -7 4 -17 4 -23 0
-7 -4 -8 -9 -1 -13 5 -3 -28 -46 -75 -96 -47 -49 -80 -80 -73 -67 6 12 8 22 6
22 -3 0 -12 -13 -21 -30 -8 -16 -25 -39 -37 -50 -39 -36 -10 -21 54 28 34 26
73 59 86 75 13 15 29 24 34 20 7 -4 8 -1 3 6 -4 8 4 23 23 41 17 15 28 30 25
33 -8 9 71 104 83 100 6 -2 19 6 29 17 20 22 40 27 30 8 -3 -7 0 -4 7 7 7 10
28 32 45 49 25 23 30 32 22 43 -11 13 -10 14 11 17 6 0 15 8 20 16 6 9 10 10
10 3 0 -6 -5 -15 -10 -18 -6 -4 -8 -10 -5 -15 9 -15 -14 -51 -73 -112 -54 -57
-99 -84 -51 -31 13 15 -4 2 -38 -27 -35 -30 -63 -56 -63 -57 0 -1 7 0 16 4 14
5 14 3 3 -14 -6 -11 -19 -19 -28 -18 -9 1 -10 0 -3 -2 20 -7 14 -19 -35 -72
-54 -58 -75 -67 -43 -18 l22 32 -30 -33 c-39 -44 -39 -69 1 -39 16 12 38 27
49 33 10 6 18 13 16 15 -5 7 63 99 73 99 6 0 7 -5 3 -12 -4 -7 -3 -8 5 -4 9 6
9 11 -1 23 -11 13 -9 18 12 32 14 9 44 33 68 55 51 47 54 42 7 -14 -19 -23
-35 -39 -35 -36 0 4 -11 -1 -25 -10 -23 -15 -24 -18 -9 -29 15 -10 14 -14 -11
-33 -15 -12 -25 -22 -21 -22 4 0 2 -9 -4 -20 -6 -11 -18 -20 -26 -20 -8 0 -13
-4 -9 -9 3 -6 -13 -29 -35 -52 -22 -23 -40 -43 -40 -45 0 -1 11 3 24 9 13 7
23 15 20 18 -2 3 14 26 36 49 22 24 40 46 40 50 0 4 9 15 21 26 11 10 27 33
34 50 7 18 23 35 35 39 12 4 19 9 16 13 -4 3 3 15 13 26 11 12 35 47 54 78 19
32 37 55 40 52 3 -3 18 13 33 36 35 52 43 37 15 -26 -12 -26 -21 -48 -21 -49
0 -9 32 3 48 18 10 9 22 14 27 10 4 -5 5 -2 1 5 -4 6 -3 12 2 12 5 0 12 9 15
21 3 12 10 18 16 14 6 -3 11 1 11 9 0 8 6 21 13 28 7 7 18 25 24 41 7 15 17
27 22 27 5 0 20 18 32 40 16 28 25 36 31 28 10 -17 10 -31 0 -24 -5 3 -14 -11
-21 -30 -7 -19 -17 -32 -22 -29 -5 3 -6 0 -4 -7 3 -8 -1 -22 -10 -33 -15 -20
-15 -20 -9 0 3 11 -11 -7 -30 -40 -20 -33 -36 -53 -36 -45 -1 8 -7 -1 -13 -20
-9 -24 -18 -35 -30 -34 -10 1 -16 -1 -13 -4 3 -3 -3 -12 -14 -19 -11 -8 -18
-18 -15 -23 3 -5 -4 -7 -16 -5 -15 3 -19 0 -15 -10 6 -17 -10 -30 -19 -15 -8
13 14 52 26 45 5 -4 9 -4 9 -1 0 2 3 11 6 19 10 27 -19 12 -64 -31 -41 -40
-49 -61 -10 -25 10 9 18 12 18 6 0 -5 -9 -18 -20 -28 -16 -15 -22 -15 -35 -5
-13 11 -20 8 -12 -4 1 -2 -6 -13 -17 -24 -10 -12 -16 -27 -13 -34 4 -9 6 -8 6
3 1 16 51 46 51 31 0 -10 -53 -58 -59 -53 -2 1 -8 -4 -13 -13 -5 -9 -26 -25
-46 -36 -27 -15 -30 -19 -12 -15 21 5 17 -2 -25 -41 -27 -26 -41 -42 -29 -36
21 11 48 36 118 110 45 47 55 48 31 3 -8 -17 -13 -31 -10 -31 2 0 13 17 24 38
17 33 101 114 116 112 4 -1 17 14 29 32 13 18 28 32 34 30 7 -1 12 4 12 12 0
7 7 20 16 27 11 9 8 -3 -10 -39 -14 -28 -29 -52 -32 -52 -3 0 -2 6 1 13 4 6
-3 0 -15 -16 -12 -15 -25 -25 -29 -22 -5 2 -13 -7 -19 -20 -7 -14 -15 -25 -20
-25 -5 0 -9 -7 -9 -16 0 -12 5 -10 18 7 21 28 37 19 18 -9 -33 -46 -97 -111
-103 -105 -3 4 10 24 31 45 20 21 35 38 32 38 -3 0 -27 -23 -54 -52 -28 -29
-43 -47 -34 -40 21 15 32 3 17 -17 -7 -9 10 4 39 29 28 25 52 50 52 55 1 6 15
26 31 45 26 31 29 33 30 13 0 -12 -5 -25 -11 -29 -7 -4 -7 -10 -1 -16 7 -7 7
-15 -1 -25 -25 -31 -53 -59 -82 -81 -18 -14 -21 -19 -8 -12 12 5 25 15 28 20
3 6 11 10 17 10 6 0 5 -7 -3 -17 -13 -16 -12 -17 3 -4 10 7 28 30 39 50 12 20
31 43 42 52 14 12 18 22 12 35 -7 17 -9 16 -21 -11 l-14 -30 6 35 c9 49 16 57
26 30 8 -22 9 -21 37 18 33 44 70 74 83 66 4 -3 13 6 19 20 13 27 55 60 77 61
7 0 17 7 22 15 19 30 11 -14 -10 -55 -12 -24 -20 -32 -20 -20 0 10 -3 15 -7
12 -3 -4 -7 -42 -7 -86 -1 -61 -5 -84 -19 -99 -10 -11 -14 -23 -9 -26 15 -9
47 74 47 123 0 40 3 46 22 47 12 1 24 -5 27 -12 3 -8 1 -14 -5 -14 -7 0 -9
-11 -5 -27 5 -21 4 -24 -4 -13 -8 13 -10 12 -11 -5 -1 -11 -1 -28 -1 -38 1
-10 -2 -15 -8 -12 -5 3 -7 0 -5 -8 3 -7 -10 -34 -30 -60 -38 -49 -51 -59 -41
-29 5 14 4 14 -9 -2 -8 -11 -15 -23 -15 -28 0 -21 23 -3 74 57 30 35 56 59 58
53 2 -6 10 8 16 31 7 23 17 39 22 36 6 -3 7 0 4 8 -3 8 0 18 7 23 8 5 10 3 5
-7 -4 -8 2 -3 13 11 l21 25 -4 -29 c-3 -16 -15 -40 -28 -55 -13 -14 -15 -19
-5 -12 20 16 23 -1 3 -19 -8 -6 -12 -19 -9 -27 4 -10 2 -14 -5 -9 -6 3 -14 1
-18 -5 -5 -8 -3 -9 6 -4 10 6 12 3 7 -11 -7 -18 -6 -18 8 1 9 11 13 25 11 32
-3 7 -3 13 0 13 2 0 9 -10 14 -22 l9 -23 0 22 c1 24 74 90 79 73 7 -19 -18
-102 -39 -131 -15 -21 -31 -29 -67 -34 -26 -4 -132 -24 -237 -46 -104 -22
-230 -46 -280 -54 -78 -13 -82 -14 -25 -10 36 3 166 25 290 50 197 39 241 45
355 45 119 0 273 -13 318 -26 15 -5 17 -19 17 -116 l0 -111 -112 7 c-166 10
-283 26 -368 48 -66 17 -105 20 -321 18 -218 -1 -370 8 -449 27 -14 3 -22 3
-19 -1 21 -23 199 -39 449 -41 247 -2 272 -4 360 -28 52 -14 154 -30 225 -36
72 -7 154 -14 183 -17 l52 -5 0 -240 0 -239 -54 0 c-167 0 -399 43 -534 99
-69 29 -201 109 -287 174 -22 17 -31 21 -20 10 43 -45 185 -138 280 -184 147
-71 369 -119 547 -119 l68 0 -1 -172 c0 -168 -1 -172 -15 -123 -8 28 -18 73
-22 100 l-8 50 -8 -65 c-4 -36 -16 -90 -27 -120 l-19 -55 5 67 c3 37 8 75 11
83 4 8 2 15 -4 15 -5 0 -12 -23 -16 -50 -4 -28 -11 -61 -16 -73 -5 -12 -12
-35 -16 -52 l-7 -30 -8 35 c-4 19 -6 37 -3 39 2 2 4 -2 4 -10 0 -11 2 -11 10
1 5 8 9 49 8 90 -1 41 -3 60 -5 42 -2 -18 -8 -30 -14 -27 -5 3 -6 -1 -3 -10 3
-8 3 -27 -1 -42 -9 -38 -24 -11 -26 47 -1 26 -4 35 -6 21 l-5 -24 -24 29 c-13
16 -23 23 -24 17 0 -7 4 -13 8 -13 5 0 14 -12 21 -26 10 -22 9 -35 -5 -71
l-17 -45 -18 23 c-9 12 -14 30 -11 38 4 13 2 14 -9 3 -11 -10 -10 -17 5 -42 9
-17 16 -38 14 -49 -7 -40 16 -23 33 24 13 36 18 43 18 25 1 -14 -6 -38 -14
-54 -8 -15 -15 -34 -15 -40 0 -7 -7 -21 -16 -32 -15 -18 -15 -18 -9 9 3 17 1
35 -6 43 -10 13 -14 10 -26 -17 -18 -43 -16 -48 8 -19 17 21 19 22 10 3 -6
-12 -8 -30 -5 -40 4 -13 3 -14 -4 -5 -7 11 -10 11 -15 -3 -4 -9 -3 -13 3 -10
25 16 -12 -57 -54 -105 -16 -18 -16 -21 -2 -10 10 8 36 40 57 72 40 59 59 72
59 41 0 -16 -2 -16 -11 -3 -9 12 -10 12 -5 -4 4 -11 3 -22 -1 -25 -12 -9 -53
-92 -42 -86 5 3 21 26 35 51 18 31 29 42 34 33 10 -14 -4 -41 -45 -89 -24 -29
-22 -28 12 6 24 24 44 37 47 30 2 -6 5 -1 5 11 1 12 4 30 7 40 5 15 4 15 -5 3
-9 -12 -11 -11 -12 10 -4 65 0 111 11 144 6 20 9 51 5 69 l-6 32 16 -28 c9
-15 13 -37 10 -47 -4 -11 -3 -20 2 -20 4 0 9 -17 10 -38 1 -25 -1 -31 -6 -18
-7 19 -8 19 -14 -3 -7 -27 1 -53 14 -45 5 3 9 -7 10 -23 0 -25 1 -26 10 -8 9
18 9 18 5 -4 -3 -13 0 -35 6 -50 10 -26 13 -43 18 -91 2 -24 2 -24 11 5 5 17
7 36 4 43 -3 7 -1 11 4 7 5 -3 18 27 28 67 l18 72 6 -45 c4 -25 6 6 6 76 -1
71 3 128 10 140 11 18 11 18 12 -5 0 -14 5 -63 10 -110 5 -47 10 -339 10 -649
0 -456 -3 -576 -14 -625 -18 -74 -18 -95 0 -41 13 38 14 32 14 -87 l1 -127
-29 1 c-30 1 -30 1 -24 52 3 28 2 48 -2 44 -4 -4 -9 -22 -10 -40 -2 -18 -3
-39 -4 -45 -1 -15 -71 -18 -71 -4 0 4 -12 6 -27 3 l-26 -5 22 37 c12 20 20 36
18 36 -3 0 -15 -16 -27 -35 -15 -25 -29 -35 -46 -35 -15 0 -23 4 -19 10 4 6
11 8 16 5 5 -4 9 1 9 10 0 9 9 34 20 56 14 27 18 45 12 56 -7 12 -11 7 -16
-22 -9 -45 -53 -118 -66 -110 -6 4 -1 23 10 46 11 21 18 39 15 39 -2 0 -14
-18 -25 -40 -18 -36 -24 -39 -53 -36 -17 2 -40 4 -51 5 -17 1 -16 4 6 34 32
42 78 126 78 141 0 7 14 25 31 42 17 16 39 46 50 66 29 57 22 59 -10 3 -16
-28 -36 -57 -45 -64 -14 -12 -16 -8 -16 33 0 33 9 62 30 100 23 40 27 54 16
52 -9 -1 -19 -6 -23 -11 -4 -4 -2 -5 5 -1 16 10 15 1 -5 -37 -9 -18 -18 -27
-21 -19 -2 7 2 20 10 29 8 10 8 14 1 10 -17 -10 -25 9 -14 30 6 10 20 49 31
86 12 38 24 67 26 64 2 -2 5 -25 5 -51 1 -26 5 -42 9 -37 3 6 3 35 0 65 -3 30
-3 63 1 73 3 10 9 36 12 58 5 39 5 39 -8 11 -7 -17 -15 -24 -19 -18 -4 7 -2
21 4 32 6 12 9 26 6 33 -2 7 -5 4 -5 -5 -1 -10 -5 -18 -11 -18 -5 0 -10 -8
-10 -17 0 -23 -34 -75 -43 -66 -4 3 -7 0 -7 -9 0 -8 -9 -23 -19 -32 -18 -17
-19 -17 -24 1 -4 16 -5 15 -6 -3 -1 -20 -18 -44 -32 -44 -4 0 -5 10 -3 22 4
21 4 21 -5 3 -4 -11 -7 -23 -4 -27 2 -5 0 -8 -5 -8 -13 0 -20 -88 -12 -141 5
-28 8 -34 9 -17 0 15 6 39 11 54 8 20 8 29 -1 34 -8 6 -8 9 0 14 6 4 11 17 11
30 0 23 17 46 33 46 5 0 7 -10 5 -23 -2 -13 1 -29 8 -35 9 -8 11 -24 8 -45 -5
-26 -3 -29 6 -17 9 12 11 7 6 -23 -3 -22 -1 -35 5 -32 14 9 11 -128 -5 -165
-9 -21 -15 -28 -19 -19 -4 11 -6 10 -6 -2 -1 -9 -8 -22 -17 -29 -13 -12 -14
-7 -9 41 l6 54 -15 -38 c-8 -21 -22 -48 -33 -59 -10 -12 -12 -18 -5 -14 22 13
13 -8 -26 -59 -37 -49 -59 -62 -87 -51 -10 3 -4 15 21 43 19 20 33 42 30 48
-2 5 1 18 5 27 5 10 5 19 0 22 -5 3 -16 -15 -25 -41 -17 -50 -51 -93 -73 -93
-17 0 -16 14 3 51 8 17 14 33 11 35 -2 2 -12 -14 -22 -37 -15 -33 -23 -39 -39
-35 -12 3 -27 6 -34 6 -8 0 -10 5 -6 12 5 8 2 9 -10 5 -14 -5 -15 -3 -6 13 15
28 12 37 -5 14 -14 -18 -14 -18 -15 6 -1 23 -2 23 -9 5 -5 -11 -4 -25 1 -32 7
-9 -4 -8 -36 3 -25 9 -46 20 -46 25 0 5 3 9 8 9 8 0 72 112 72 126 0 5 -6 0
-12 -11 -50 -93 -61 -107 -69 -94 -6 10 -9 8 -9 -8 0 -27 -7 -28 -60 -7 -28
11 -40 22 -41 38 -1 17 -2 18 -6 3 -10 -39 -119 21 -153 85 -33 61 -49 76 -21
20 13 -24 20 -46 18 -48 -9 -9 -37 9 -37 23 0 8 -4 11 -10 8 -5 -3 -21 2 -35
11 -22 14 -25 24 -26 73 l-1 56 -9 -44 c-5 -24 -6 -49 -2 -55 4 -7 2 -8 -5 -1
-6 6 -12 27 -14 47 -1 20 -5 35 -10 32 -4 -3 -5 -18 -1 -34 7 -37 -2 -38 -21
-2 -8 15 -15 21 -16 13 0 -26 -40 20 -41 48 0 21 -2 23 -8 8 -6 -17 -8 -17
-20 -3 -7 8 -10 19 -7 25 3 5 2 20 -3 33 -9 22 -10 22 -10 -6 l-1 -30 -34 33
-33 32 12 67 c7 37 12 68 11 69 -2 2 -13 -20 -26 -47 l-24 -50 -28 27 c-18 17
-28 37 -29 57 0 25 -2 27 -8 12 -6 -16 -10 -13 -24 22 -9 24 -17 49 -17 57 0
7 -5 17 -10 20 -7 4 -9 -2 -4 -19 9 -37 -5 -32 -50 16 -24 27 -32 33 -22 16
20 -34 20 -44 1 -28 -8 7 -15 8 -15 2 0 -5 7 -15 15 -22 8 -7 16 -31 17 -54 1
-38 1 -39 5 -8 4 33 5 33 24 16 10 -9 20 -31 20 -48 1 -25 3 -27 6 -8 l5 24
24 -23 c17 -16 24 -33 24 -61 0 -45 28 -176 42 -198 7 -11 8 -9 4 9 -3 14 -2
44 1 68 5 41 7 42 20 23 8 -11 12 -28 9 -38 -3 -9 -2 -39 3 -67 8 -45 9 -40
10 49 l1 100 30 -29 c29 -28 30 -32 30 -119 0 -106 7 -112 11 -8 2 39 6 72 9
72 15 0 30 -27 31 -54 1 -26 2 -27 7 -9 l7 21 26 -21 c14 -12 40 -53 59 -92
18 -38 35 -64 38 -56 2 7 14 -4 29 -28 13 -23 28 -41 33 -41 5 0 12 -10 15
-21 4 -12 10 -17 14 -12 3 6 13 13 21 16 12 4 11 6 -3 6 -26 1 -45 22 -40 46
3 18 3 18 -5 2 -10 -23 -19 -14 -51 50 -29 57 -27 68 9 46 22 -13 30 -25 31
-48 2 -29 2 -29 6 -3 l4 27 32 -19 c35 -21 97 -101 97 -126 0 -8 4 -13 9 -10
5 3 14 -1 21 -9 7 -8 24 -14 39 -14 20 1 22 2 6 6 -26 6 -75 53 -75 71 0 10 9
8 38 -9 51 -30 62 -46 63 -93 2 -31 3 -34 6 -13 3 17 9 25 16 21 8 -5 8 -3 0
7 -13 13 -18 69 -7 69 3 0 57 -16 120 -36 127 -40 121 -29 65 -105 -14 -18
-20 -29 -13 -25 6 4 25 26 42 50 l31 43 72 -15 c40 -8 73 -16 75 -17 2 -2 -2
-14 -9 -27 l-12 -23 25 23 c22 20 32 22 79 17 79 -10 84 -12 68 -33 -10 -13
-8 -12 9 3 19 16 27 17 42 7 11 -6 22 -8 25 -3 8 13 46 1 38 -13 -3 -6 0 -6 8
2 14 13 79 17 79 4 0 -4 -14 -28 -31 -53 l-31 -44 31 35 c17 19 33 42 36 51 4
12 18 17 45 17 l39 1 1 -995 0 -994 -53 0 c-30 0 -112 5 -183 10 -655 52
-1214 236 -1607 532 -113 84 -289 265 -367 376 -196 278 -448 855 -535 1225
-60 256 -77 556 -42 747 22 119 84 306 132 396 l36 69 -4 -230 c-3 -167 -1
-212 6 -165 11 83 15 689 4 795 l-8 79 23 -29 c41 -54 252 -299 310 -360 48
-51 56 -64 52 -90 -3 -24 -2 -26 4 -7 7 23 10 21 65 -36 31 -33 57 -69 57 -79
0 -15 2 -16 11 -3 8 12 9 8 6 -15 -2 -16 -2 -24 0 -17 6 18 14 15 45 -15 16
-15 28 -38 29 -52 0 -24 1 -24 9 -6 7 17 9 16 10 -10 2 -19 4 -23 7 -12 4 14
8 16 19 6 8 -6 14 -18 14 -25 0 -8 6 -14 13 -14 23 0 57 -57 58 -97 l2 -38 6
33 6 34 24 -26 c21 -23 24 -34 24 -118 l0 -93 6 88 6 88 53 -54 c28 -30 52
-60 52 -66 0 -7 4 -10 9 -7 4 3 17 -5 29 -17 18 -20 19 -27 10 -78 -7 -34 -8
-82 -2 -125 6 -49 9 -60 13 -39 4 30 4 30 11 5 5 -15 9 15 10 80 1 58 3 120 5
138 1 18 -3 39 -11 46 -25 26 21 152 79 214 17 17 27 32 21 32 -26 0 -98 -120
-110 -184 l-7 -39 -18 24 c-36 45 -48 80 -42 112 6 27 7 29 15 12 5 -14 6 -10
2 12 -3 21 -1 33 5 33 6 0 11 7 11 15 0 9 7 29 15 45 9 17 13 30 10 30 -4 0
-24 -38 -46 -85 -32 -67 -39 -93 -34 -117 5 -23 9 -27 16 -17 6 10 9 3 9 -20
0 -29 -2 -32 -15 -21 -8 7 -15 22 -15 34 0 17 -2 18 -10 6 -11 -18 -11 -20
-15 50 -3 43 -2 50 6 31 13 -33 20 -22 10 15 -5 16 -10 25 -12 19 -1 -5 -5 13
-8 40 -4 28 -1 72 6 100 7 27 10 51 8 53 -3 3 -6 -1 -9 -9 -19 -67 -25 -98
-20 -119 5 -25 5 -25 -8 -3 -12 19 -13 16 -13 -37 -1 -54 0 -57 11 -32 10 25
11 23 15 -31 4 -59 -3 -71 -20 -38 -6 10 -42 49 -81 86 -41 40 -70 77 -70 88
0 11 -3 17 -7 14 -3 -4 -15 0 -25 10 -13 11 -18 32 -20 72 l-1 56 -6 -49 -6
-50 -55 65 c-30 35 -69 78 -87 95 -24 22 -31 37 -27 55 3 18 2 19 -4 6 -7 -16
-10 -16 -30 8 l-23 26 31 55 c16 30 28 54 25 54 -2 0 -18 -24 -35 -52 l-30
-53 0 38 c0 21 5 47 10 57 8 16 8 18 -5 14 -15 -6 -19 -28 -15 -69 1 -16 -6
-12 -39 20 -23 21 -41 44 -41 51 0 7 -6 14 -14 17 -8 3 -42 38 -76 79 -34 40
-77 91 -96 113 -37 43 -39 51 -24 89 6 17 6 26 0 26 -6 0 -10 -9 -10 -19 0
-11 -4 -22 -9 -26 -11 -6 -61 62 -61 84 0 8 -3 11 -7 8 -8 -9 -32 24 -33 46 0
9 -5 16 -12 15 -6 -2 -18 11 -27 27 -9 17 -19 32 -22 35 -4 3 -9 15 -13 28 -4
12 -12 20 -17 17 -5 -4 -14 5 -21 19 -9 20 -8 32 1 54 7 15 9 24 5 19 -4 -4
-13 5 -20 20 -12 27 -13 26 -7 -14 3 -24 3 -43 0 -43 -8 0 -87 127 -87 140 0
5 -3 10 -8 10 -14 0 -72 117 -73 146 0 22 -2 25 -7 11 -6 -14 -13 -6 -35 36
-15 30 -27 69 -28 88 -1 30 -2 31 -8 10 -6 -21 -14 -8 -55 85 -99 224 -178
501 -210 734 -8 58 -14 88 -15 66 -1 -33 -9 -46 -62 -97 -71 -68 -158 -115
-232 -124 -57 -7 -152 5 -237 31 l-55 17 38 8 c217 48 414 412 418 771 1 62 4
85 9 68 16 -49 9 2 -31 247 -22 136 -41 268 -42 293 -2 64 42 260 66 293 11
16 28 50 38 75 l18 47 0 -35 c1 -61 -28 -218 -58 -310 -30 -94 -33 -117 -6
-52 43 100 96 395 78 426 -3 5 -5 47 -5 95 1 47 -2 104 -7 126 -7 33 -9 24
-10 -56 -1 -89 -26 -224 -49 -266 -18 -32 -6 200 17 312 20 104 40 326 28 315
-3 -3 -11 -61 -16 -129 -12 -134 -37 -270 -53 -286 -10 -10 -7 91 3 111 3 5 5
23 4 39 -8 147 -5 289 9 353 9 40 15 103 15 140 l-1 67 -9 -60 c-4 -33 -13
-87 -20 -120 -15 -75 -33 -109 -24 -45 28 199 41 376 25 345 -18 -37 -4 175
18 275 11 52 23 131 25 175 3 57 11 93 26 124 13 24 18 40 12 36 -6 -3 -22
-27 -36 -53 l-24 -47 -1 35 c0 21 15 66 35 109 39 81 46 112 14 66 -19 -28
-20 -28 -13 -5 9 34 32 77 44 85 16 10 11 28 -6 21 -12 -5 -14 -1 -8 17 3 12
13 30 21 39 8 9 12 22 8 28 -4 6 -1 18 7 27 9 12 9 15 1 9 -26 -15 -12 11 33
62 52 60 51 71 -2 15 l-36 -38 7 40 c10 65 15 75 38 76 20 0 20 1 3 8 -16 6
-12 11 25 29 24 12 38 22 31 22 -7 0 -26 -7 -42 -15 -25 -13 -30 -13 -30 -1 0
7 7 19 15 26 9 7 30 32 47 54 l32 41 -38 -35 -37 -35 26 58 c46 104 112 191
153 202 21 6 23 9 11 14 -14 5 -12 15 20 71 38 67 47 73 144 95 15 3 25 10 22
14 -3 5 -29 4 -60 -4 -52 -12 -55 -11 -55 6 0 14 17 27 57 44 61 27 69 46 8
21 -49 -21 -54 -20 -48 7 8 30 49 73 84 87 16 7 29 17 29 22 0 5 -21 -2 -47
-15 -27 -14 -55 -28 -63 -31 -8 -3 -23 -11 -32 -18 -31 -22 -30 0 2 47 31 45
100 185 100 202 0 4 -22 -33 -48 -82 -50 -97 -110 -185 -124 -185 -5 0 11 27
36 59 57 73 59 92 5 31 l-41 -45 26 52 c14 28 36 59 48 68 14 11 19 19 11 22
-13 5 20 112 38 124 7 4 9 12 5 18 -4 6 -25 -3 -56 -25 -69 -49 -66 -22 5 51
46 47 95 119 95 140 0 13 -19 3 -24 -12 -4 -10 -15 -29 -26 -43 -17 -22 -16
-17 5 35 13 33 27 86 31 118 5 47 12 62 35 82 35 29 38 43 4 21 -31 -20 -35
-20 -35 3 0 11 18 42 40 70 38 48 44 71 18 71 -6 0 -20 -7 -30 -17 -17 -15
-18 -14 -18 30 0 25 4 48 9 51 4 3 6 16 4 29 -3 14 2 29 11 36 9 8 16 19 16
26 0 6 9 20 20 30 24 22 26 40 4 31 -23 -9 -15 6 41 79 41 53 54 64 73 60 23
-6 33 20 10 27 -7 3 5 27 31 60 30 40 47 55 58 51 13 -5 15 -2 9 12 -4 12 7
38 35 81 23 35 45 64 50 64 21 0 138 125 173 184 21 36 49 72 62 81 13 8 24
25 24 36 0 18 -2 19 -15 9 -11 -9 -15 -9 -15 -1 0 6 24 27 53 46 103 68 172
144 94 104 -16 -8 -13 -2 12 24 23 24 46 38 72 42 43 8 47 12 22 30 -15 11
-11 14 26 20 29 5 45 13 48 25 3 12 19 20 46 24 25 4 37 10 29 14 -12 8 82 62
107 62 20 0 97 43 84 47 -6 2 -26 -3 -43 -12 -18 -9 -29 -12 -26 -6 10 16 -7
14 -30 -4 -10 -8 -30 -15 -43 -15 -23 0 -24 1 -6 20 11 12 31 20 52 20 54 0
97 24 139 78 45 59 60 62 171 36 39 -9 91 -14 123 -11 30 2 65 1 78 -4 36 -14
180 -22 162 -10 -8 6 -24 11 -35 11 -23 0 -110 40 -140 64 -15 12 -7 11 33 -5
51 -18 97 -30 185 -44 62 -10 42 11 -22 22 -33 7 -79 20 -103 31 l-43 20 41 1
c23 1 58 -6 77 -14z m-261 -53 c-12 -2 -48 2 -80 9 l-57 12 29 12 c25 11 37 9
80 -9 40 -16 46 -22 28 -24z m603 28 c8 -13 -5 -13 -25 0 -13 8 -13 10 2 10 9
0 20 -4 23 -10z m-870 -29 c18 -7 17 -9 -12 -24 -42 -22 -43 -22 -41 8 2 26
16 30 53 16z m-31 -62 c-10 -17 -70 -39 -105 -39 -31 0 -32 1 -14 19 11 13 34
21 64 24 25 2 50 4 54 5 5 1 5 -3 1 -9z m1109 -21 c10 -11 15 -23 12 -26 -5
-6 -85 45 -85 54 0 13 56 -8 73 -28z m647 -65 c-1 -24 -2 -26 -11 -10 -5 9 -7
22 -4 27 10 17 15 11 15 -17z m-1935 -42 c-6 -6 -28 -17 -50 -26 l-40 -16 30
25 c28 24 81 38 60 17z m1685 -66 c16 -19 1 -19 -24 0 -16 12 -17 15 -4 15 8
0 21 -7 28 -15z m-1960 -108 c0 -2 -16 -19 -36 -38 l-37 -34 18 32 c11 18 26
34 34 36 9 3 17 5 19 6 1 0 2 0 2 -2z m-210 -285 c0 -17 -59 -99 -99 -137 -22
-21 -41 -36 -41 -32 0 22 83 156 103 165 27 13 37 14 37 4z m-471 -581 c-18
-23 -34 -39 -36 -38 -9 10 21 66 40 74 33 16 32 8 -4 -36z m-93 -98 c-18 -33
-21 -26 -6 13 6 15 13 24 16 21 3 -3 -1 -18 -10 -34z m30 -40 c-15 -29 -66
-82 -66 -69 0 8 70 96 76 96 3 0 -2 -12 -10 -27z m-126 -157 c-27 -41 -50 -58
-50 -40 0 12 72 95 77 90 3 -2 -9 -25 -27 -50z m96 -8 c-4 -28 -16 -62 -27
-76 l-19 -25 0 58 c0 47 4 60 23 76 12 10 24 18 26 19 2 0 0 -23 -3 -52z m55
-26 c-12 -22 -41 -48 -41 -36 0 8 40 54 47 54 2 0 -1 -8 -6 -18z m-125 -129
c-5 -12 -10 -11 -30 4 -22 17 -23 19 -9 36 9 9 13 17 9 17 -3 0 1 15 11 33
l18 32 3 -54 c2 -29 1 -60 -2 -68z m45 16 c-25 -41 -28 -21 -4 24 9 18 18 27
20 21 2 -7 -5 -27 -16 -45z m5 -47 c-18 -16 -18 -16 -6 6 6 13 14 21 18 18 3
-4 -2 -14 -12 -24z m0 -83 c-12 -54 -59 -150 -81 -169 -17 -14 -2 85 21 135
17 37 64 98 70 92 2 -2 -3 -28 -10 -58z m-81 31 c-3 -5 -17 -10 -31 -10 -13 0
-24 5 -24 10 0 6 14 10 31 10 17 0 28 -4 24 -10z m-51 -117 c-16 -24 -19 -25
-22 -10 -2 10 5 25 15 32 26 19 29 10 7 -22z m-14 -120 c-11 -17 -11 -17 -6 0
3 10 6 24 7 30 0 9 2 9 5 0 3 -7 0 -20 -6 -30z m97 -105 c-13 -32 -72 -86 -82
-76 -2 2 16 30 41 62 50 63 63 67 41 14z m-97 -19 c-9 -15 -15 -18 -23 -10 -7
7 -5 16 8 32 22 24 32 10 15 -22z m61 -66 c-5 -10 -33 -40 -61 -68 l-52 -50
28 51 c16 28 40 58 54 67 34 21 43 20 31 0z m-25 -218 c-66 -61 -95 -64 -44
-5 27 32 68 56 98 59 3 0 -21 -24 -54 -54z m59 -4 c-3 -6 -11 -11 -17 -11 -6
0 -6 6 2 15 14 17 26 13 15 -4z m-12 -47 c-6 -15 -52 -39 -60 -30 -3 2 5 14
16 25 25 25 53 28 44 5z m-105 -44 c-11 -18 -28 -27 -28 -16 0 6 30 36 36 36
2 0 -1 -9 -8 -20z m66 -32 c-25 -50 -92 -136 -115 -149 -17 -9 -14 3 22 71 32
62 50 86 73 96 17 7 32 13 34 14 1 0 -5 -15 -14 -32z m-134 -52 c0 -2 -8 -10
-17 -17 -16 -13 -17 -12 -4 4 13 16 21 21 21 13z m-4 -74 c-34 -67 -66 -107
-66 -83 0 7 5 22 11 34 15 28 79 117 85 117 2 0 -11 -31 -30 -68z m14 -56 c0
-3 -4 -8 -10 -11 -5 -3 -10 -1 -10 4 0 6 5 11 10 11 6 0 10 -2 10 -4z m-67
-66 c-3 -12 -8 -19 -11 -16 -5 6 5 36 12 36 2 0 2 -9 -1 -20z m-524 -587 c7
-27 20 -62 30 -79 34 -58 45 -109 46 -214 2 -113 23 -248 35 -215 5 15 8 13
13 -13 4 -20 2 -41 -5 -52 -11 -17 -15 -13 -34 40 -31 86 -82 166 -138 216
-26 24 -52 44 -57 44 -5 0 11 -18 36 -41 72 -67 153 -206 169 -291 3 -13 5
-25 5 -28 1 -3 9 10 18 29 l17 34 8 -31 c7 -24 4 -42 -12 -73 -12 -22 -19 -43
-16 -46 2 -3 17 19 32 49 l28 53 7 -40 c7 -44 1 -62 -57 -153 -43 -67 -43 -74
1 -32 19 19 35 30 35 26 0 -5 7 -2 17 5 14 12 14 10 -2 -21 -10 -19 -29 -53
-42 -75 l-24 -40 27 30 c15 17 32 29 37 27 5 -2 7 4 4 12 -4 9 -1 15 4 13 11
-2 79 109 79 128 -1 6 -15 -16 -34 -47 -43 -75 -55 -87 -22 -21 14 29 39 88
55 132 37 100 53 130 44 81 -3 -19 -12 -51 -21 -70 -8 -19 -16 -52 -17 -72 -3
-36 -82 -211 -125 -275 -12 -18 -18 -33 -13 -33 5 0 25 27 44 60 44 78 66 107
39 53 -22 -46 -27 -74 -10 -57 6 6 29 55 51 110 36 91 39 95 33 49 -7 -49 -31
-105 -76 -175 -18 -28 -19 -32 -4 -20 10 7 31 37 47 65 16 27 29 44 29 38 0
-19 -48 -144 -70 -180 -11 -18 -16 -33 -11 -33 12 0 79 149 96 215 l15 60 -5
-50 c-5 -53 -67 -192 -110 -249 -14 -18 -25 -36 -25 -40 0 -15 22 7 56 57 49
71 36 29 -37 -117 -32 -66 -52 -113 -45 -105 26 26 88 148 122 241 31 85 34
89 28 43 -7 -53 -47 -190 -64 -215 -8 -13 -10 -12 -11 5 -1 11 -5 0 -9 -25 -4
-25 -10 -54 -14 -65 -6 -16 -6 -17 3 -5 14 20 15 -97 1 -137 -10 -27 -9 -27 6
-8 15 19 16 14 12 -62 -2 -44 0 -79 3 -77 3 2 11 -54 18 -124 7 -70 28 -233
47 -362 19 -129 34 -237 34 -240 0 -3 -14 20 -31 50 -60 110 -130 155 -229
148 l-59 -4 30 33 c31 36 79 124 79 145 -1 7 -11 -6 -23 -29 l-22 -42 0 127
c0 70 -3 154 -7 187 l-8 60 27 -47 c39 -70 38 -52 -1 33 -40 86 -81 211 -96
288 -21 111 -4 377 40 634 20 121 19 159 -2 55 l-13 -63 -7 85 c-10 120 -21
158 -87 300 -68 144 -86 211 -78 286 7 66 51 151 92 176 48 29 61 24 74 -29z
m18 15 c-3 -7 -5 -2 -5 12 0 14 2 19 5 13 2 -7 2 -19 0 -25z m318 -175 c-18
-42 -25 -52 -25 -34 0 14 28 71 35 71 3 0 -2 -17 -10 -37z m31 -138 c-3 -31
-10 -63 -16 -73 -5 -9 -19 -50 -30 -89 -12 -40 -24 -73 -27 -73 -3 0 -2 23 1
52 8 56 63 238 73 238 3 0 3 -25 -1 -55z m-39 3 c-3 -8 -6 -5 -6 6 -1 11 2 17
5 13 3 -3 4 -12 1 -19z m-82 -115 l-15 -28 6 40 c3 22 9 49 12 60 5 16 7 14
10 -12 2 -18 -4 -45 -13 -60z m-33 25 c-10 -26 -18 -36 -20 -26 -3 14 24 68
33 68 2 0 -4 -19 -13 -42z m-115 -30 c-3 -8 -6 -5 -6 6 -1 11 2 17 5 13 3 -3
4 -12 1 -19z m109 -95 l-15 -28 -1 37 c0 20 6 50 13 65 l12 28 3 -37 c2 -20
-4 -50 -12 -65z m-39 40 c-3 -10 -5 -2 -5 17 0 19 2 27 5 18 2 -10 2 -26 0
-35z m74 -10 c-12 -20 -14 -14 -5 12 4 9 9 14 11 11 3 -2 0 -13 -6 -23z m-1
-93 l-20 -55 6 45 c3 25 11 59 17 75 22 55 19 -5 -3 -65z m-28 -12 c-4 -49
-22 -58 -22 -12 0 23 18 70 24 62 1 -1 1 -24 -2 -50z m103 -143 c-4 -31 -9
-54 -12 -51 -3 2 -1 30 2 61 4 31 9 54 12 51 3 -2 1 -30 -2 -61z m-104 -32
c-12 -20 -14 -14 -5 12 4 9 9 14 11 11 3 -2 0 -13 -6 -23z m116 -25 c-3 -8 -6
-5 -6 6 -1 11 2 17 5 13 3 -3 4 -12 1 -19z m-10 -40 c-3 -8 -6 -5 -6 6 -1 11
2 17 5 13 3 -3 4 -12 1 -19z m-10 -340 c-3 -8 -6 -5 -6 6 -1 11 2 17 5 13 3
-3 4 -12 1 -19z m-12 -169 c-8 -56 -25 -139 -38 -183 l-22 -81 -3 65 c-2 44 4
89 18 140 61 215 70 227 45 59z m-50 24 c-28 -53 -28 -52 0 25 11 30 21 47 23
39 2 -9 -9 -37 -23 -64z m60 -124 c-19 -96 -56 -218 -62 -203 -2 6 7 50 21 97
14 47 31 123 38 169 9 59 14 73 16 50 2 -19 -4 -69 -13 -113z m-66 40 c-11
-36 -14 -40 -17 -20 -4 22 17 76 25 67 3 -2 -1 -24 -8 -47z m83 -164 c3 -55 2
-82 -2 -60 -6 34 -7 30 -7 -28 1 -61 2 -65 12 -40 9 23 11 11 7 -67 -2 -56 -9
-101 -17 -110 -7 -9 -11 -33 -9 -59 4 -40 -15 -138 -22 -116 -2 6 -12 87 -23
180 l-19 170 34 100 c18 55 34 109 34 119 0 11 2 17 4 15 2 -2 6 -49 8 -104z
m3186 -1648 c22 -23 22 -25 6 -68 -27 -72 -23 -164 9 -226 42 -81 111 -125
226 -145 69 -12 71 -13 71 -41 l0 -30 -71 6 c-134 11 -245 85 -297 197 -37 78
-43 217 -14 284 23 52 38 57 70 23z m127 -71 c27 -9 80 -19 117 -23 l68 -6 0
-158 0 -159 -35 0 c-26 0 -35 4 -36 18 -1 16 -2 16 -6 0 -5 -18 -15 -23 -25
-12 -4 3 -3 18 2 33 4 16 4 35 -1 42 -7 11 -9 11 -9 -3 0 -9 -5 -29 -10 -44
-8 -20 -14 -24 -22 -16 -9 9 -6 24 12 61 13 28 27 48 32 45 4 -3 8 -3 8 0 0 3
-4 8 -10 11 -5 3 -21 -18 -36 -47 -14 -29 -28 -55 -30 -57 -2 -2 -22 8 -45 23
-41 28 -42 30 -24 81 3 11 -1 7 -10 -8 -16 -27 -17 -28 -30 -11 -11 16 -11 24
2 49 l14 30 -19 -24 -20 -24 -5 29 c-9 45 -1 156 13 187 12 25 15 26 34 14 12
-8 43 -21 71 -31z m-402 -131 c-3 -9 -8 -14 -10 -11 -3 3 -2 9 2 15 9 16 15
13 8 -4z m182 -56 l17 -55 -32 -67 c-17 -37 -33 -67 -34 -67 -1 0 -3 14 -3 30
0 17 4 30 9 30 4 0 8 10 8 23 1 12 7 33 15 47 19 34 18 52 -1 20 l-15 -25 5
25 c16 68 15 71 -5 20 -24 -60 -27 -66 -34 -59 -5 6 17 81 36 123 7 15 14 24
15 20 1 -5 10 -34 19 -65z m-331 2 c-29 -54 -47 -64 -19 -12 8 17 13 31 10 31
-3 0 3 8 13 18 27 29 26 17 -4 -37z m117 12 c-8 -15 -10 -15 -11 -2 0 17 10
32 18 25 2 -3 -1 -13 -7 -23z m-230 -96 c-10 -9 -11 -8 -5 6 3 10 9 15 12 12
3 -3 0 -11 -7 -18z m58 -19 c-23 -43 -62 -98 -66 -94 -6 6 14 43 45 84 28 37
38 42 21 10z m311 -8 c4 -26 0 -41 -9 -36 -4 3 -23 -17 -40 -44 -32 -50 -45
-63 -35 -35 4 8 1 15 -5 15 -6 0 -11 -6 -11 -14 0 -8 -9 -24 -21 -37 -18 -21
-20 -21 -14 -4 4 11 9 27 12 35 2 8 -8 -6 -22 -32 -15 -25 -42 -54 -60 -64
-18 -10 -31 -23 -29 -29 3 -7 -2 -18 -11 -25 -10 -8 -15 -9 -15 -1 0 6 5 11
11 11 5 0 7 5 4 10 -9 14 35 86 85 139 23 25 49 56 58 68 8 13 21 22 28 19 7
-3 16 4 19 15 7 20 7 20 21 2 13 -17 14 -17 7 1 -5 15 -3 17 7 11 10 -6 12 -4
6 11 -5 12 -4 16 3 9 5 -5 10 -17 11 -25z m-363 -15 c-15 -16 -22 -11 -13 10
3 9 10 13 16 10 6 -4 5 -11 -3 -20z m476 -19 c-11 -14 -23 -23 -25 -20 -8 7
-18 -54 -12 -70 3 -8 1 -17 -5 -21 -7 -4 -8 1 -4 12 6 16 5 16 -10 4 -10 -8
-16 -19 -14 -25 6 -16 -22 -68 -33 -61 -6 4 -10 13 -10 21 0 9 -5 12 -12 8 -7
-4 -8 -3 -4 5 4 6 11 9 16 6 4 -3 11 1 14 7 3 7 4 0 1 -17 l-5 -30 14 25 c8
14 12 28 9 33 -6 9 38 117 47 117 4 0 12 12 19 27 9 19 15 23 23 15 8 -8 5
-18 -9 -36z m84 -90 c-11 -20 -16 -38 -20 -78 -1 -9 -5 -15 -9 -12 -4 2 -19
-11 -35 -31 -15 -19 -32 -35 -37 -35 -10 0 22 51 41 65 7 6 15 20 18 33 2 12
13 34 24 48 12 15 18 31 14 36 -3 6 -10 3 -16 -7 -7 -13 -11 -14 -17 -5 -5 8
-10 2 -15 -18 -6 -31 -35 -66 -35 -43 0 7 7 25 15 42 16 29 12 55 -6 43 -5 -3
-7 -10 -3 -15 3 -5 -5 -26 -18 -47 -12 -20 -23 -39 -23 -42 -1 -11 -24 -44
-25 -34 0 5 5 15 12 22 7 7 8 12 4 12 -5 0 -1 12 9 26 9 15 19 41 22 58 3 17
12 44 20 59 l14 29 39 -42 c35 -38 38 -45 27 -64z m-466 56 c-13 -25 -51 -57
-51 -44 0 9 49 62 58 62 1 0 -2 -8 -7 -18z m-179 -34 c-7 -7 -12 -8 -12 -2 0
14 12 26 19 19 2 -3 -1 -11 -7 -17z m-63 -49 c-54 -47 -74 -51 -31 -6 18 18
29 37 25 42 -5 4 -3 5 3 2 7 -4 18 0 25 9 10 12 14 13 18 3 2 -7 -16 -30 -40
-50z m751 33 c0 -4 -6 -14 -12 -21 -11 -11 -10 -12 1 -6 10 6 12 4 7 -6 -4 -8
-1 -6 6 3 13 15 15 15 27 0 11 -16 12 -16 7 0 -4 12 -1 15 10 11 13 -5 13 -8
-2 -24 -13 -14 -20 -16 -31 -8 -7 6 -13 7 -13 2 0 -5 -6 -10 -13 -10 -11 0
-15 29 -9 60 3 10 22 9 22 -1z m-230 -6 c0 -3 -4 -8 -10 -11 -5 -3 -10 -1 -10
4 0 6 5 11 10 11 6 0 10 -2 10 -4z m306 -43 c-5 -15 -3 -15 9 1 25 32 38 6 15
-29 -14 -22 -20 -25 -20 -12 0 25 -15 21 -35 -9 -9 -14 -19 -24 -22 -21 -5 5
46 87 54 87 3 0 2 -8 -1 -17z m147 -3 c15 0 17 -14 17 -161 l0 -161 -33 6
c-53 10 -227 25 -289 26 l-57 0 30 45 c17 25 27 50 23 56 -4 7 -3 9 4 5 6 -3
14 3 17 15 6 17 9 19 16 8 7 -11 9 -9 9 7 0 11 3 24 7 28 4 3 8 12 9 19 1 7 6
21 10 31 6 15 4 17 -7 11 -12 -8 -12 -6 0 8 14 17 26 24 17 9 -2 -4 4 -13 14
-20 16 -10 22 -7 39 15 15 19 21 21 21 9 0 -9 -4 -16 -10 -16 -5 0 -10 -6 -10
-14 0 -7 -10 -26 -22 -42 -13 -15 -16 -24 -8 -19 10 6 9 2 -3 -12 -9 -11 -15
-22 -13 -24 3 -2 -4 -15 -15 -29 l-20 -25 6 25 c5 21 4 22 -5 7 -20 -32 1 -40
31 -11 28 26 43 22 17 -5 -11 -10 -10 -12 2 -9 12 2 51 50 55 68 4 15 35 109
44 134 11 26 15 28 49 22 20 -3 45 -6 55 -6z m-253 -24 c0 -3 -4 -8 -10 -11
-5 -3 -10 -1 -10 4 0 6 5 11 10 11 6 0 10 -2 10 -4z m-470 -36 c0 -5 -7 -10
-15 -10 -8 0 -14 -3 -14 -7 3 -21 -3 -29 -23 -30 -21 -2 -20 1 10 28 35 31 42
35 42 19z m-126 -15 c-4 -8 -11 -15 -16 -15 -6 0 -5 6 2 15 7 8 14 15 16 15 2
0 1 -7 -2 -15z m697 -32 c-11 -21 -20 -34 -21 -30 0 14 32 78 37 73 2 -2 -5
-21 -16 -43z m-297 10 c-7 -37 -23 -65 -35 -58 -5 4 -9 12 -9 18 0 8 3 8 9 -1
6 -10 10 -6 16 15 10 34 12 41 14 48 0 3 3 5 5 5 3 0 3 -12 0 -27z m108 -26
c-23 -23 -42 -36 -42 -30 0 14 72 84 79 77 3 -3 -14 -24 -37 -47z m66 13 c-12
-35 -28 -49 -28 -24 0 15 26 54 36 54 2 0 -2 -14 -8 -30z m251 -1275 c-4 -5
-10 -28 -14 -50 -8 -44 -54 -140 -55 -114 0 16 22 79 39 109 5 9 12 40 17 70
7 49 8 52 14 25 4 -16 3 -34 -1 -40z m-30 -174 c-10 -63 -30 -131 -39 -131
-13 0 -20 46 -11 76 8 26 49 104 55 104 2 0 0 -22 -5 -49z m-59 -21 c0 -13 -1
-13 -10 0 -5 8 -10 22 -10 30 0 13 1 13 10 0 5 -8 10 -22 10 -30z m-1514 -668
c-12 -11 -56 42 -56 66 0 23 3 21 31 -17 17 -24 28 -45 25 -49z m-2 -140 c-4
-42 -10 -66 -12 -53 -5 31 9 161 15 143 3 -8 2 -48 -3 -90z m91 38 l20 -25
-22 19 c-13 11 -23 24 -23 29 0 6 1 8 3 6 1 -2 11 -15 22 -29z m39 -16 c3 -8
2 -12 -4 -9 -6 3 -10 10 -10 16 0 14 7 11 14 -7z m1274 -42 c-12 -15 -11 -16
5 -3 22 17 22 13 -5 -46 -14 -31 -23 -42 -25 -31 -2 9 1 26 7 37 9 17 8 20 -5
15 -8 -4 -15 -9 -16 -13 0 -3 -2 -21 -3 -38 -2 -18 0 -30 4 -28 5 3 12 0 16
-7 4 -7 4 -10 -1 -6 -4 4 -13 0 -20 -9 -10 -14 -14 -10 -28 30 -15 45 -15 47
6 64 13 10 34 34 47 53 20 28 25 31 28 17 2 -10 -2 -26 -10 -35z m-1152 -99
c-11 -11 -17 4 -9 23 7 18 8 18 11 1 2 -10 1 -21 -2 -24z m-6 -50 c0 -14 -4
-21 -10 -18 -5 3 -10 15 -10 26 0 10 -4 19 -9 19 -5 0 -13 9 -16 21 -4 11 -9
18 -12 16 -2 -3 2 -18 10 -34 10 -19 13 -40 8 -68 l-7 -40 -12 53 c-22 96 -13
117 30 75 15 -15 28 -37 28 -50z m1123 -13 c-3 -12 -8 -19 -11 -16 -5 6 5 36
12 36 2 0 2 -9 -1 -20z m-863 -259 c0 -3 -8 8 -19 24 -10 17 -16 34 -13 39 4
8 32 -47 32 -63z m809 -74 c-13 -25 -26 -44 -31 -41 -4 3 -8 -1 -8 -9 0 -17
-39 -67 -40 -51 0 7 -11 9 -26 6 -15 -3 -25 -1 -23 4 8 19 73 104 76 100 2 -2
-3 -21 -12 -41 -8 -21 -14 -40 -11 -42 2 -2 11 15 21 39 14 36 63 93 73 83 2
-1 -7 -23 -19 -48z m-629 22 c0 -6 -4 -7 -10 -4 -5 3 -10 11 -10 16 0 6 5 7
10 4 6 -3 10 -11 10 -16z m71 -19 c31 -25 12 -26 -21 0 -14 11 -20 20 -14 20
7 0 22 -9 35 -20z"/>
<path d="M5820 9576 c-14 -7 -41 -21 -60 -30 -19 -8 -60 -34 -91 -57 -31 -23
-63 -39 -70 -37 -8 3 6 15 34 29 26 12 47 27 47 31 0 5 -9 4 -19 -2 -13 -7
-22 -7 -26 0 -3 5 -3 10 2 10 4 0 24 14 43 31 41 36 26 30 -50 -21 -30 -21
-70 -45 -88 -54 -19 -10 -30 -21 -26 -28 4 -7 3 -8 -5 -4 -6 4 -31 -9 -56 -30
-76 -62 -63 -29 21 53 43 43 70 70 59 61 -11 -9 -38 -26 -60 -38 -63 -35 -106
-70 -99 -82 4 -6 3 -8 -3 -5 -10 6 -133 -89 -133 -103 0 -4 -7 -11 -16 -14
-15 -6 -15 -4 -3 11 7 10 24 30 37 45 23 25 23 26 4 21 -11 -2 -30 -16 -43
-29 -12 -13 -28 -24 -34 -24 -6 0 -22 -11 -35 -25 -13 -14 -31 -25 -40 -25
-26 0 -211 -206 -210 -234 1 -6 10 0 20 13 11 13 20 18 20 12 0 -7 5 -9 13 -5
6 5 -10 -16 -36 -46 -26 -29 -53 -63 -58 -74 -6 -12 10 2 35 29 50 55 60 54
21 -3 -14 -20 -25 -43 -25 -52 1 -8 7 -3 16 13 16 29 30 37 20 11 -4 -12 -2
-15 9 -10 17 6 21 -9 5 -19 -6 -3 -17 -21 -26 -38 l-16 -32 37 39 c20 21 43
49 52 62 16 25 43 33 43 12 0 -6 10 -3 23 8 l22 19 -19 -22 c-10 -13 -23 -20
-27 -17 -10 6 -25 -24 -17 -32 3 -2 25 7 49 21 33 18 59 25 102 25 36 0 56 4
52 10 -3 6 -24 10 -46 10 -52 0 -49 14 7 30 33 10 57 10 90 3 44 -10 73 0 34
12 -11 3 -20 9 -20 13 0 4 -26 5 -57 4 -46 -3 -55 -1 -46 8 7 8 35 12 69 11
54 -1 57 0 38 15 -18 14 -14 15 51 10 39 -3 77 -1 85 4 11 7 5 10 -25 11 -22
0 -49 5 -60 10 -23 11 76 6 110 -5 15 -5 14 -4 -2 5 -13 7 -23 16 -23 21 0 9
20 7 88 -9 17 -4 21 -2 16 10 -3 9 -13 13 -24 10 -10 -3 -27 0 -37 5 -26 15
66 8 94 -7 12 -6 24 -11 28 -11 13 0 -8 22 -29 30 -21 9 -21 9 2 9 13 1 21 5
18 9 -6 11 50 9 84 -3 21 -7 23 -6 13 6 -22 27 59 10 90 -19 15 -14 27 -21 27
-14 0 6 -16 22 -36 35 l-35 25 26 6 c26 7 54 -4 90 -33 19 -15 19 -15 5 2 -13
18 -11 19 30 16 29 -2 45 1 48 9 3 10 7 10 20 0 13 -11 14 -11 7 1 -6 11 -4
13 11 6 10 -5 32 -9 48 -10 17 -1 32 -7 34 -13 2 -7 11 -12 19 -12 10 0 13 6
9 16 -4 11 3 9 27 -7 l32 -23 -25 29 -25 29 33 -23 c17 -12 32 -28 33 -34 0
-7 4 -2 9 11 11 27 36 29 58 4 10 -10 13 -13 9 -6 -13 20 12 27 38 10 33 -22
42 -20 20 4 -18 20 -18 21 1 14 10 -4 25 -14 32 -22 9 -12 12 -13 12 -2 0 9 7
6 20 -8 30 -32 32 -27 9 16 l-21 37 26 -30 c14 -16 30 -30 35 -30 5 0 18 -11
30 -25 18 -23 31 -17 14 6 -5 5 0 1 10 -9 14 -16 17 -17 17 -3 0 10 6 13 15
10 9 -4 15 0 15 7 0 8 10 -1 21 -18 25 -39 33 -42 27 -9 -7 33 7 56 16 28 4
-12 13 -19 20 -16 8 3 20 -3 27 -13 8 -10 23 -20 34 -21 11 -2 23 -9 26 -14 4
-6 10 -1 14 11 8 25 38 23 61 -5 8 -10 13 -13 9 -6 -3 6 -2 12 4 12 5 0 13 -9
16 -20 4 -11 11 -18 16 -15 5 4 12 -1 15 -10 4 -9 13 -14 20 -11 8 3 19 -4 25
-16 l12 -21 11 22 c7 12 15 19 18 15 4 -3 4 4 1 17 -4 14 -2 20 5 15 6 -3 14
-20 17 -37 5 -24 9 -28 16 -18 7 11 13 9 29 -11 17 -22 22 -23 40 -12 12 7 20
8 20 2 0 -5 8 -10 19 -10 21 0 37 -16 44 -45 4 -15 5 -13 6 8 1 28 15 37 24
15 3 -7 6 -3 6 9 1 12 6 25 12 29 8 4 9 -1 4 -16 -5 -15 -4 -20 3 -16 6 4 16
-3 22 -15 17 -30 21 -19 8 23 -8 26 -8 40 1 54 11 18 12 18 6 -2 -6 -25 38
-89 65 -90 12 -1 16 4 13 13 -5 12 -7 12 -14 1 -5 -7 -9 -8 -9 -2 0 5 5 15 12
22 8 8 6 23 -8 59 -12 30 -19 76 -20 123 -2 96 -5 107 -14 45 l-7 -50 -1 58
c-2 53 -3 57 -18 43 -20 -20 -25 -20 -17 1 4 11 3 14 -5 9 -7 -4 -14 3 -18 20
-4 17 -2 29 7 35 11 7 11 9 1 9 -7 0 -29 -11 -49 -24 -31 -22 -37 -23 -50 -10
-9 8 -13 24 -10 34 3 11 2 18 -3 15 -4 -3 -10 2 -14 10 -3 8 -12 12 -21 9 -14
-6 -20 6 -15 31 1 5 -8 1 -19 -9 -17 -15 -23 -16 -36 -6 -10 8 -15 9 -15 1 0
-6 -8 -11 -17 -11 -14 0 -15 2 -5 9 11 6 10 10 -4 15 -16 6 -16 8 -4 16 12 8
12 10 1 10 -11 0 -11 3 0 18 12 16 12 16 -6 -1 -18 -16 -20 -16 -33 5 -13 23
-13 23 -7 -4 4 -23 0 -30 -24 -42 -27 -14 -41 -13 -41 5 0 5 12 15 26 22 l27
14 -27 7 c-17 4 -39 1 -57 -8 -16 -8 -27 -10 -23 -4 4 6 -4 9 -17 8 -47 -4
-43 3 6 10 l50 7 -57 1 c-43 2 -60 6 -67 20 -10 16 -10 16 -11 -2 0 -19 0 -19
-22 0 -33 27 -68 46 -68 35 0 -15 -121 -10 -127 6 -3 7 -13 13 -22 13 -11 1
-9 5 9 16 l25 15 -25 -8 c-14 -4 -36 -6 -50 -5 -14 1 -47 3 -75 4 -27 0 -53 5
-56 11 -4 5 -29 3 -64 -8 -65 -18 -85 -14 -34 9 19 8 28 15 21 15 -7 1 -10 6
-7 11 9 14 5 13 -77 -16 -70 -26 -152 -39 -143 -24 7 11 -21 20 -31 10 -11
-10 -137 -60 -141 -56 -3 2 82 67 123 93 26 16 5 16 -26 -1z m261 -31 c-18 -8
-38 -15 -45 -15 -15 1 46 28 64 29 8 0 0 -6 -19 -14z m124 -25 c18 -1 18 -2
-3 -10 -28 -12 -90 -1 -70 12 7 4 22 6 33 3 11 -2 29 -5 40 -5z m80 0 c13 -5
14 -9 5 -9 -8 0 -24 4 -35 9 -13 5 -14 9 -5 9 8 0 24 -4 35 -9z m-235 -10 c0
-5 -8 -10 -17 -10 -15 0 -16 2 -3 10 19 12 20 12 20 0z m-200 -10 c-20 -13
-33 -13 -25 0 3 6 14 10 23 10 15 0 15 -2 2 -10z m55 0 c-3 -5 -14 -10 -23
-10 -15 0 -15 2 -2 10 20 13 33 13 25 0z m220 1 c18 -7 16 -9 -12 -15 -37 -9
-63 1 -42 15 17 10 27 10 54 0z m-165 -11 c-8 -5 -22 -10 -30 -10 -13 0 -13 1
0 10 8 5 22 10 30 10 13 0 13 -1 0 -10z m336 -15 c-19 -14 -56 -21 -56 -10 0
7 41 24 60 24 11 0 10 -3 -4 -14z m81 9 c-3 -3 -12 -4 -19 -1 -8 3 -5 6 6 6
11 1 17 -2 13 -5z m150 -20 c-3 -3 -12 -4 -19 -1 -8 3 -5 6 6 6 11 1 17 -2 13
-5z m163 -64 c0 -5 -4 -10 -10 -10 -5 0 -10 5 -10 10 0 6 5 10 10 10 6 0 10
-4 10 -10z m-1347 -44 c-15 -19 -37 -36 -47 -39 -13 -4 -6 7 20 34 47 48 67
52 27 5z m1487 4 c0 -5 -10 -10 -22 -10 -19 0 -20 2 -8 10 19 13 30 13 30 0z
m128 -34 c-1 -15 -7 -22 -15 -19 -24 9 -16 32 14 42 2 1 2 -10 1 -23z m-1808
-76 c-17 -22 -37 -40 -43 -40 -6 0 7 18 28 40 21 22 41 40 43 40 2 0 -11 -18
-28 -40z m126 25 c-11 -8 -25 -15 -30 -15 -6 0 -2 7 8 15 11 8 25 15 30 15 6
0 2 -7 -8 -15z m1814 -36 c0 -11 -4 -17 -10 -14 -5 3 -10 13 -10 21 0 8 5 14
10 14 6 0 10 -9 10 -21z m-2034 -60 c-30 -39 -52 -77 -50 -84 3 -7 1 -16 -5
-20 -7 -4 -9 1 -5 12 4 13 0 11 -16 -7 l-21 -25 22 44 c17 37 113 151 125 151
2 0 -20 -32 -50 -71z m2060 23 c-12 -11 -18 7 -10 30 l8 23 4 -23 c2 -13 1
-26 -2 -30z m-1958 -12 c-7 -10 -14 -18 -15 -16 -6 6 9 36 18 36 5 0 4 -9 -3
-20z m-58 -24 c0 -3 -16 -22 -35 -42 -36 -37 -36 -37 -25 -8 6 16 18 35 27 42
17 12 33 16 33 8z m2104 -131 c5 -20 4 -27 -3 -20 -5 6 -12 30 -15 55 -6 46 2
30 18 -35z m-2024 45 c0 -5 -5 -10 -11 -10 -5 0 -7 5 -4 10 3 6 8 10 11 10 2
0 4 -4 4 -10z m-30 -45 c-7 -8 -17 -15 -22 -15 -6 0 -5 7 2 15 7 8 17 15 22
15 6 0 5 -7 -2 -15z m-140 -25 c0 -5 -8 -10 -17 -10 -15 0 -16 2 -3 10 19 12
20 12 20 0z m90 -25 c-7 -8 -17 -15 -22 -15 -6 0 -5 7 2 15 7 8 17 15 22 15 6
0 5 -7 -2 -15z m-94 -14 c-17 -19 -56 -35 -56 -23 0 15 16 30 35 35 36 9 38 7
21 -12z m54 9 c0 -5 -5 -10 -11 -10 -5 0 -7 5 -4 10 3 6 8 10 11 10 2 0 4 -4
4 -10z m50 -24 c0 -2 -7 -7 -16 -10 -8 -3 -12 -2 -9 4 6 10 25 14 25 6z"/>
<path d="M5920 9550 c-8 -5 -10 -10 -5 -10 6 0 17 5 25 10 8 5 11 10 5 10 -5
0 -17 -5 -25 -10z"/>
<path d="M7226 9160 c5 -67 34 -203 41 -196 3 2 -3 39 -11 83 -9 43 -20 101
-25 128 -10 49 -10 49 -5 -15z"/>
<path d="M5601 9157 c17 -14 79 -48 79 -44 0 7 -65 47 -75 47 -5 0 -6 -1 -4
-3z"/>
<path d="M6030 8844 c-312 -40 -498 -107 -590 -211 l-25 -28 30 26 c132 117
277 164 625 205 214 24 373 15 555 -32 16 -4 17 -3 4 5 -8 5 -61 19 -116 30
-119 25 -316 27 -483 5z"/>
<path d="M6195 8789 c5 -26 3 -26 -58 -32 -51 -5 -64 -3 -76 11 -13 16 -13 16
-8 0 5 -14 -3 -20 -36 -28 -23 -6 -48 -13 -54 -15 -7 -2 -20 6 -29 18 l-16 22
6 -27 c6 -25 3 -28 -29 -34 -23 -4 -41 -2 -53 7 -16 13 -16 12 -3 -4 13 -16
13 -20 0 -28 -26 -17 -60 -22 -72 -10 -19 19 -31 12 -13 -8 16 -17 15 -19 -10
-36 -22 -14 -31 -15 -53 -5 -25 11 -25 11 -8 -7 16 -19 16 -20 -7 -32 -18 -10
-29 -10 -47 -1 l-24 11 21 -18 21 -19 -24 -18 c-17 -12 -33 -16 -56 -11 -31 6
-32 6 -8 -8 l24 -14 -44 -25 c-89 -51 -87 -50 -59 -42 14 3 38 13 53 21 26 13
30 12 67 -17 51 -40 188 -103 270 -124 91 -24 277 -31 393 -17 53 7 161 28
239 47 165 39 222 42 303 14 32 -11 65 -20 74 -20 9 1 -4 8 -29 17 -25 8 -46
16 -48 18 -2 2 6 20 17 41 12 21 21 49 21 61 0 21 4 19 64 -22 85 -60 94 -71
76 -98 -12 -20 -12 -21 3 -8 32 26 19 49 -75 125 -51 41 -118 96 -148 121 -30
25 -79 57 -107 72 -37 20 -53 34 -53 48 0 16 -2 17 -9 6 -13 -21 -75 -2 -79
24 -2 11 -8 24 -12 29 -5 5 -6 -1 -3 -14 6 -22 5 -23 -42 -17 -26 4 -54 7 -61
7 -8 0 -15 10 -15 23 -1 16 -2 18 -6 5 -4 -15 -17 -18 -82 -18 -75 0 -78 1
-89 28 l-12 27 5 -26z m428 -140 c64 -33 176 -108 197 -134 14 -17 6 -59 -19
-101 -19 -31 -19 -31 -69 -21 -39 8 -69 7 -137 -7 -48 -9 -89 -15 -91 -14 -2
2 8 27 23 56 29 59 41 157 25 215 -6 23 -7 37 -1 37 5 0 38 -14 72 -31z m-760
-61 c-6 -89 21 -170 75 -230 l36 -40 -50 7 c-105 16 -269 81 -332 132 l-23 18
78 55 c57 40 200 125 219 130 1 0 -1 -33 -3 -72z m589 58 c85 -9 88 -11 88
-66 0 -56 -32 -165 -58 -197 -26 -32 -150 -55 -330 -60 l-153 -5 -29 27 c-39
37 -81 136 -87 204 l-5 58 58 16 c33 9 75 19 94 22 l35 6 0 -70 c0 -68 1 -72
37 -107 31 -32 45 -38 91 -42 58 -5 97 9 131 47 19 21 19 21 -1 21 -31 0 -47
24 -33 49 12 24 39 27 59 9 11 -11 12 -3 9 44 -4 54 -3 57 16 53 12 -2 46 -6
78 -9z"/>
<path d="M6650 8798 c9 -9 140 -67 140 -63 0 6 -89 51 -120 60 -14 4 -23 5
-20 3z"/>
<path d="M6800 8727 c0 -3 12 -12 26 -22 15 -9 23 -12 20 -6 -7 11 -46 35 -46
28z"/>
<path d="M7355 8695 c4 -11 16 -45 26 -75 27 -75 55 -240 68 -391 18 -198 20
-203 16 -39 -2 85 -11 193 -20 240 -18 94 -57 221 -81 260 -10 17 -13 19 -9 5z"/>
<path d="M5403 8588 c-15 -20 -25 -38 -20 -38 3 0 12 11 21 25 17 26 16 35 -1
13z"/>
<path d="M6956 8564 c72 -43 104 -73 151 -141 40 -59 54 -70 26 -21 -32 56
-125 149 -174 174 -70 35 -72 29 -3 -12z"/>
<path d="M5083 8320 c10 -6 43 -14 73 -17 l56 -6 -44 -39 -43 -38 63 42 64 43
-69 6 c-37 3 -79 9 -93 13 -21 6 -22 5 -7 -4z"/>
<path d="M6550 8316 c0 -2 8 -10 18 -17 15 -13 16 -12 3 4 -13 16 -21 21 -21
13z"/>
<path d="M5679 8289 l-24 -20 30 17 c39 24 40 24 28 24 -6 0 -21 -9 -34 -21z"/>
<path d="M5789 8249 l-24 -20 28 17 c15 9 27 18 27 20 0 8 -8 4 -31 -17z"/>
<path d="M6322 8230 c0 -14 2 -19 5 -12 2 6 2 18 0 25 -3 6 -5 1 -5 -13z"/>
<path d="M5449 8221 c20 -37 134 -134 187 -158 61 -28 147 -53 179 -52 11 0
-13 9 -53 19 -103 27 -187 74 -259 146 -34 34 -58 54 -54 45z"/>
<path d="M5904 8218 l-19 -23 25 20 c14 11 27 21 29 22 2 2 0 3 -6 3 -5 0 -18
-10 -29 -22z"/>
<path d="M6083 8215 c-3 -9 -3 -18 -1 -21 3 -3 8 4 11 16 6 23 -1 27 -10 5z"/>
<path d="M7081 8154 c-1 -94 -22 -157 -72 -224 -34 -44 -36 -50 -11 -27 54 51
85 122 90 207 2 42 2 84 -1 95 -2 11 -5 -12 -6 -51z"/>
<path d="M6580 7980 c-8 -5 -10 -10 -5 -10 6 0 17 5 25 10 8 5 11 10 5 10 -5
0 -17 -5 -25 -10z"/>
<path d="M6495 7949 c-76 -29 -252 -78 -320 -88 -53 -8 -55 -9 -19 -10 23 0
84 10 135 23 127 32 307 98 262 96 -5 -1 -30 -10 -58 -21z"/>
<path d="M7459 7556 c-19 -97 -45 -155 -164 -377 -128 -236 -155 -323 -135
-428 12 -64 48 -144 84 -186 20 -24 17 -14 -16 53 -40 77 -43 89 -46 181 -5
127 7 163 110 334 139 228 195 370 186 471 -2 31 -6 22 -19 -48z"/>
<path d="M7073 6947 c-137 -141 -189 -252 -181 -381 6 -93 49 -179 129 -258
62 -63 171 -122 244 -133 32 -5 27 -2 -25 17 -138 49 -236 131 -292 245 -41
83 -50 182 -23 262 21 65 97 180 168 255 31 33 55 61 53 63 -1 2 -34 -30 -73
-70z"/>
<path d="M4442 6600 c0 -14 2 -19 5 -12 2 6 2 18 0 25 -3 6 -5 1 -5 -13z"/>
<path d="M4452 6550 c0 -14 2 -19 5 -12 2 6 2 18 0 25 -3 6 -5 1 -5 -13z"/>
<path d="M7226 6055 c-9 -26 -7 -32 5 -12 6 10 9 21 6 23 -2 3 -7 -2 -11 -11z"/>
<path d="M7294 6039 c-17 -19 -19 -19 -26 -2 -4 10 -5 -7 -3 -37 2 -30 1 -44
-3 -32 l-7 24 -19 -21 c-22 -25 -39 -18 -31 12 5 16 4 18 -3 8 -5 -7 -12 -9
-14 -5 -3 5 -2 2 0 -6 3 -8 5 -26 5 -38 l-1 -24 28 27 29 28 7 -29 c6 -25 8
-26 15 -9 4 11 8 33 8 49 1 17 11 40 23 53 12 13 19 23 16 23 -3 0 -13 -9 -24
-21z"/>
<path d="M7317 5969 c-10 -11 -17 -25 -15 -30 2 -5 11 4 21 21 21 35 19 39 -6
9z"/>
<path d="M7405 5951 c-3 -5 -2 -12 3 -15 5 -3 9 1 9 9 0 17 -3 19 -12 6z"/>
<path d="M6962 5900 c0 -14 2 -19 5 -12 2 6 2 18 0 25 -3 6 -5 1 -5 -13z"/>
<path d="M7351 5891 c-1 -20 1 -21 14 -11 16 14 21 25 6 16 -5 -4 -12 0 -14 6
-3 7 -6 2 -6 -11z"/>
<path d="M7175 5794 c-20 -16 -23 -22 -9 -15 12 6 25 7 29 3 5 -4 5 -2 2 5 -4
6 -1 13 5 16 7 2 11 7 8 10 -3 3 -19 -5 -35 -19z"/>
<path d="M6862 5741 c-25 -30 -49 -48 -59 -47 -12 2 -23 -10 -35 -36 -9 -21
-21 -38 -25 -38 -5 0 -33 -23 -62 -51 -30 -29 -51 -43 -48 -33 4 12 0 10 -10
-6 -10 -14 -31 -39 -48 -55 -16 -17 -36 -38 -43 -47 -12 -15 -11 -17 8 -15 13
1 42 27 76 69 30 37 60 68 66 68 6 0 3 -10 -8 -22 l-19 -23 23 19 c12 11 20
21 17 24 -6 6 37 38 47 35 4 -2 4 5 1 14 -4 11 -3 14 5 9 7 -4 12 -2 12 5 0 6
37 49 82 95 45 46 77 84 71 84 -5 0 -29 -22 -51 -49z"/>
<path d="M6730 5705 c-35 -35 -67 -62 -71 -60 -4 3 -15 -8 -24 -23 -10 -15
-41 -49 -70 -77 -28 -27 -43 -44 -33 -36 10 8 18 10 18 5 0 -10 -57 -67 -123
-122 -21 -18 -33 -32 -28 -32 5 0 13 5 16 10 3 6 11 10 16 10 5 0 2 -11 -8
-24 -10 -13 -22 -23 -28 -23 -5 1 -9 -4 -8 -10 2 -7 -12 -20 -30 -28 l-32 -16
25 20 c16 13 20 19 9 18 -16 -3 -86 -57 -73 -57 4 0 -10 -16 -32 -36 l-39 -36
45 33 c25 19 47 36 50 39 3 3 16 6 30 8 23 2 20 -2 -25 -51 -28 -29 -16 -19
26 23 42 41 83 76 90 78 8 2 22 13 33 25 10 12 21 21 25 20 3 -2 6 1 6 7 0 15
22 33 28 23 14 -22 -71 -124 -143 -175 -18 -12 -19 -16 -6 -11 15 5 17 3 11
-8 -4 -8 33 28 83 79 50 50 96 92 104 92 10 0 10 2 1 8 -8 5 4 26 39 67 l52
60 -52 -50 c-37 -35 -61 -50 -82 -51 -16 -1 -36 -6 -43 -12 -8 -7 -18 -8 -22
-4 -5 4 -5 2 -1 -5 3 -6 -5 -23 -19 -37 -15 -15 -25 -20 -25 -12 0 8 7 19 15
26 8 7 13 16 10 20 -3 4 6 15 20 24 14 9 25 13 25 9 0 -3 12 4 26 18 31 28 73
86 56 75 -7 -4 -12 -3 -12 3 0 6 55 67 121 136 67 69 120 125 117 125 -2 0
-32 -29 -68 -65z m-170 -208 c0 -2 -15 -16 -32 -33 l-33 -29 29 33 c28 30 36
37 36 29z m-6 -113 c3 -8 2 -12 -4 -9 -6 3 -10 10 -10 16 0 14 7 11 14 -7z"/>
<path d="M6616 5707 c-17 -29 -31 -57 -32 -63 -3 -16 23 -11 39 6 10 12 9 12
-5 1 -24 -18 -23 -9 8 50 34 67 27 71 -10 6z"/>
<path d="M6486 5662 c-3 -5 1 -9 9 -9 8 0 12 4 9 9 -3 4 -7 8 -9 8 -2 0 -6 -4
-9 -8z"/>
<path d="M6005 5598 c-84 -93 -141 -216 -157 -340 -10 -81 -15 -98 -32 -107
-20 -9 -20 -10 3 -8 22 2 25 -3 37 -71 7 -41 15 -77 19 -80 3 -3 2 14 -2 38
-4 25 -8 64 -8 88 l0 43 89 39 c60 28 84 35 75 23 -13 -17 -13 -17 11 -2 14 9
41 20 60 23 30 6 21 -2 -55 -53 -65 -44 -84 -61 -67 -61 14 0 21 4 16 11 -4 7
0 9 14 5 11 -4 37 0 57 9 48 19 52 19 32 -3 -17 -18 -14 -32 7 -32 7 0 6 4 -2
8 -8 6 11 30 65 83 43 41 89 80 103 86 22 11 22 12 3 7 -18 -4 -22 -2 -17 10
3 9 11 13 17 9 5 -3 7 -1 4 4 -8 12 13 31 67 62 52 30 58 19 7 -15 -42 -27
-56 -43 -23 -25 39 21 113 89 163 151 30 36 64 73 77 84 17 13 20 21 12 31 -6
7 -9 17 -8 21 9 26 -18 7 -70 -49 -32 -35 -64 -61 -70 -59 -7 2 -15 -3 -18
-12 -3 -8 -30 -34 -60 -57 -30 -23 -52 -44 -49 -47 2 -3 12 1 22 9 17 13 17
13 2 -11 -9 -14 -30 -34 -47 -45 -17 -11 -38 -35 -47 -53 -9 -18 -23 -36 -31
-39 -8 -3 -12 -9 -9 -13 13 -20 -147 -118 -176 -108 -7 2 18 23 55 47 36 24
63 48 60 53 -3 5 1 8 9 6 9 -2 15 2 14 7 -1 6 -4 9 -7 8 -3 -1 -12 -4 -21 -8
-10 -3 -16 -1 -16 8 0 7 5 14 11 14 20 1 81 39 84 52 3 15 -28 0 -48 -23 -7
-9 -20 -16 -29 -16 -17 -1 -56 -26 -56 -38 0 -4 -7 -6 -15 -5 -8 1 -46 -14
-84 -34 -117 -59 -116 -59 -116 -13 0 31 4 40 18 40 13 0 14 2 4 9 -8 4 -12
19 -10 31 3 22 7 23 83 22 68 0 74 1 40 8 -22 5 -57 9 -78 9 -35 1 -38 3 -32
24 15 55 88 187 134 245 28 34 49 62 47 62 -2 0 -30 -28 -61 -62z m569 1 c-3
-5 -9 -7 -13 -5 -4 3 -16 -9 -26 -25 -11 -16 -26 -29 -33 -29 -7 0 -11 -4 -8
-9 3 -4 -6 -19 -19 -31 -14 -13 -25 -20 -25 -16 0 5 -16 -6 -35 -23 -39 -34
-52 -38 -52 -17 0 8 3 14 6 13 9 -3 56 32 56 41 0 4 3 6 7 5 4 -2 33 26 65 62
43 48 60 61 70 53 7 -5 10 -14 7 -19z m-154 -163 c0 -2 -8 -10 -17 -17 -16
-13 -17 -12 -4 4 13 16 21 21 21 13z"/>
<path d="M6546 5612 c-3 -5 1 -9 9 -9 8 0 12 4 9 9 -3 4 -7 8 -9 8 -2 0 -6 -4
-9 -8z"/>
<path d="M6514 5568 l-19 -23 23 19 c21 18 27 26 19 26 -2 0 -12 -10 -23 -22z"/>
<path d="M6464 5508 l-19 -23 23 19 c21 18 27 26 19 26 -2 0 -12 -10 -23 -22z"/>
<path d="M6189 5633 c-13 -16 -12 -17 4 -4 16 13 21 21 13 21 -2 0 -10 -8 -17
-17z"/>
<path d="M6382 5590 c-30 -33 -57 -58 -62 -55 -4 3 -17 -6 -27 -21 -10 -14
-25 -26 -33 -27 -21 -4 -40 -17 -40 -28 0 -6 6 -7 13 -3 6 4 -1 -7 -17 -24
-16 -17 -32 -29 -36 -27 -9 6 -35 -23 -44 -49 -4 -11 -12 -16 -21 -12 -8 3
-15 1 -15 -4 0 -6 5 -10 12 -10 6 0 3 -7 -8 -16 -29 -24 4 -4 84 49 40 27 116
92 170 144 l97 95 -93 -85 c-79 -74 -171 -147 -185 -147 -2 0 48 51 110 113
100 97 162 167 151 167 -2 0 -27 -27 -56 -60z"/>
<path d="M6343 5610 c-16 -19 -18 -27 -8 -27 8 0 12 4 9 9 -3 4 -1 8 4 8 9 0
26 30 20 35 -2 1 -13 -10 -25 -25z"/>
<path d="M6457 5621 c-10 -14 -10 -14 4 -4 9 7 18 10 21 7 3 -3 8 -1 12 4 9
16 -24 9 -37 -7z"/>
<path d="M6203 5567 c-89 -83 -143 -124 -186 -142 -20 -8 -39 -20 -42 -26 -4
-6 6 -4 22 5 80 41 142 64 136 50 -3 -7 -8 -12 -11 -11 -11 3 -104 -45 -98
-50 3 -3 34 8 70 25 54 25 65 34 59 49 -3 10 -2 15 2 11 5 -5 24 4 44 19 l36
28 -18 -30 c-18 -29 -18 -29 0 -8 65 77 101 135 71 117 -5 -3 -7 -8 -4 -11 6
-6 -71 -69 -127 -102 -55 -33 -54 -21 1 21 51 39 130 118 119 118 -4 0 -37
-28 -74 -63z"/>
<path d="M6139 5593 l-24 -28 28 24 c15 14 27 26 27 28 0 8 -8 1 -31 -24z"/>
<path d="M6293 5546 l-18 -21 24 20 c13 11 25 19 28 17 3 -2 7 -2 9 1 2 2 -3
4 -11 4 -8 0 -23 -10 -32 -21z"/>
<path d="M6079 5543 c-13 -16 -12 -17 4 -4 9 7 17 15 17 17 0 8 -8 3 -21 -13z"/>
<path d="M6259 5503 c-13 -16 -12 -17 4 -4 9 7 17 15 17 17 0 8 -8 3 -21 -13z"/>
<path d="M7232 5499 c-6 -8 -28 -34 -49 -59 -21 -25 -28 -37 -17 -27 11 9 25
14 30 10 5 -5 6 -4 2 1 -4 4 -2 13 3 20 5 6 16 20 24 31 14 19 15 18 5 -7 -20
-58 -54 -113 -98 -162 l-46 -51 47 45 c49 45 123 176 115 201 -3 9 -7 9 -16
-2z"/>
<path d="M7361 5484 c0 -11 3 -14 6 -6 3 7 2 16 -1 19 -3 4 -6 -2 -5 -13z"/>
<path d="M7298 5451 c5 -14 3 -14 -11 -2 -15 11 -17 11 -17 -2 0 -8 -3 -24 -7
-34 -4 -10 6 -4 25 15 36 37 37 39 18 39 -9 0 -12 -6 -8 -16z"/>
<path d="M6154 5419 c-39 -40 -108 -78 -146 -80 -17 -1 -19 -2 -5 -6 9 -2 34
1 55 9 20 7 42 13 48 13 6 0 24 15 39 33 15 17 30 30 35 27 4 -2 15 4 24 14
14 15 14 19 3 24 -9 3 -30 -11 -53 -34z"/>
<path d="M6879 5423 c-13 -16 -12 -17 4 -4 9 7 17 15 17 17 0 8 -8 3 -21 -13z"/>
<path d="M5950 5380 c0 -6 7 -10 15 -10 8 0 15 2 15 4 0 2 -7 6 -15 10 -8 3
-15 1 -15 -4z"/>
<path d="M7227 5353 c-14 -21 -36 -51 -48 -68 -12 -17 -7 -14 11 7 18 21 36
36 41 32 5 -3 6 3 2 12 -4 11 -2 15 4 11 6 -4 13 3 16 15 9 34 2 32 -26 -9z"/>
<path d="M5918 5363 c7 -3 16 -2 19 1 4 3 -2 6 -13 5 -11 0 -14 -3 -6 -6z"/>
<path d="M6354 5344 c-18 -14 -18 -15 4 -4 12 6 22 13 22 15 0 8 -5 6 -26 -11z"/>
<path d="M7129 5333 c-13 -16 -12 -17 4 -4 9 7 17 15 17 17 0 8 -8 3 -21 -13z"/>
<path d="M7264 5318 c-19 -23 -19 -23 2 -5 11 9 24 14 29 10 4 -5 5 -2 1 5 -9
16 -10 16 -32 -10z"/>
<path d="M6058 5323 c6 -2 18 -2 25 0 6 3 1 5 -13 5 -14 0 -19 -2 -12 -5z"/>
<path d="M6874 5288 l-19 -23 23 19 c21 18 27 26 19 26 -2 0 -12 -10 -23 -22z"/>
<path d="M7223 5303 c4 -3 1 -13 -6 -22 -11 -14 -10 -14 5 -2 16 12 16 31 1
31 -4 0 -3 -3 0 -7z"/>
<path d="M7399 5293 c-13 -16 -12 -17 4 -4 9 7 17 15 17 17 0 8 -8 3 -21 -13z"/>
<path d="M6050 5285 c-14 -8 -20 -14 -14 -15 5 0 19 7 30 15 24 18 16 19 -16
0z"/>
<path d="M5973 5259 c-97 -27 -100 -28 -48 -22 28 3 61 12 75 19 28 15 20 16
-27 3z"/>
<path d="M6610 5255 c-7 -9 -10 -18 -6 -22 3 -3 6 -1 6 6 0 7 4 10 8 7 5 -3 9
1 9 9 0 19 -2 19 -17 0z"/>
<path d="M5984 5194 c-18 -14 -18 -15 4 -4 12 6 22 13 22 15 0 8 -5 6 -26 -11z"/>
<path d="M6460 5190 c-9 -6 -10 -10 -3 -10 6 0 15 5 18 10 8 12 4 12 -15 0z"/>
<path d="M6154 5154 c-18 -14 -18 -15 4 -4 12 6 22 13 22 15 0 8 -5 6 -26 -11z"/>
<path d="M6793 5143 c9 -2 23 -2 30 0 6 3 -1 5 -18 5 -16 0 -22 -2 -12 -5z"/>
<path d="M6547 5119 c7 -7 15 -10 18 -7 3 3 -2 9 -12 12 -14 6 -15 5 -6 -5z"/>
<path d="M5011 4834 c-1 -15 30 -106 35 -101 2 2 -5 28 -15 58 -11 30 -20 49
-20 43z"/>
<path d="M6935 4810 c10 -11 20 -20 23 -20 3 0 -3 9 -13 20 -10 11 -20 20 -23
20 -3 0 3 -9 13 -20z"/>
<path d="M5107 4663 c-4 -3 -7 -11 -7 -17 0 -6 5 -5 12 2 6 6 9 14 7 17 -3 3
-9 2 -12 -2z"/>
<path d="M5117 4633 c-4 -3 -7 -11 -7 -17 0 -6 5 -5 12 2 6 6 9 14 7 17 -3 3
-9 2 -12 -2z"/>
<path d="M5198 4558 c-6 -18 3 -58 13 -58 12 0 11 27 -1 35 -5 3 -7 12 -3 20
3 8 3 15 0 15 -3 0 -7 -5 -9 -12z"/>
<path d="M5251 4464 c0 -11 3 -14 6 -6 3 7 2 16 -1 19 -3 4 -6 -2 -5 -13z"/>
<path d="M5260 4426 c0 -8 4 -17 9 -20 5 -4 7 3 4 14 -6 23 -13 26 -13 6z"/>
<path d="M7093 4411 c-62 -39 -82 -125 -43 -188 53 -88 190 -82 233 10 21 43
21 68 3 110 -33 78 -126 110 -193 68z m143 -17 c24 -16 54 -71 54 -98 0 -35
-30 -86 -62 -106 -86 -52 -188 6 -188 108 0 95 113 150 196 96z"/>
<path d="M7741 4294 c0 -11 3 -14 6 -6 3 7 2 16 -1 19 -3 4 -6 -2 -5 -13z"/>
<path d="M7471 4284 c0 -11 3 -14 6 -6 3 7 2 16 -1 19 -3 4 -6 -2 -5 -13z"/>
<path d="M7361 4236 c-1 -56 -44 -153 -92 -207 -28 -32 -28 -31 6 24 19 32 32
63 29 69 -4 6 -3 8 4 5 6 -5 8 0 5 13 -5 17 -9 14 -32 -22 -46 -73 -45 -72
-30 -64 8 4 4 -1 -7 -11 -27 -23 -65 -81 -45 -68 11 6 13 4 8 -8 -17 -44 31
-1 96 87 37 49 49 52 22 6 -17 -31 -19 -44 -3 -34 7 5 8 3 4 -5 -5 -7 -11 -10
-14 -7 -7 7 -32 -13 -32 -26 0 -5 5 -6 12 -2 7 4 8 3 4 -5 -4 -6 -11 -9 -16
-6 -5 3 -12 0 -16 -6 -4 -8 -3 -9 4 -5 20 12 13 -10 -9 -30 -11 -10 -26 -27
-31 -38 -20 -38 36 16 108 102 37 45 69 80 72 78 11 -12 -73 -159 -115 -202
-27 -27 -39 -42 -28 -34 21 14 116 110 109 110 -2 0 13 35 32 78 43 92 51 116
29 82 -12 -18 -15 -19 -10 -5 4 11 8 25 9 32 1 7 6 16 10 20 4 4 6 4 5 -2 -2
-5 3 -21 10 -33 17 -31 7 -66 -32 -116 -18 -22 -32 -44 -32 -48 0 -4 -20 -32
-44 -61 l-44 -52 46 45 c26 24 47 40 47 35 0 -6 14 15 31 45 36 65 55 87 44
50 -4 -14 -10 -32 -12 -40 -2 -8 3 -4 11 10 8 14 15 34 16 45 0 11 9 34 20 50
23 35 25 46 8 43 -9 -2 -15 18 -19 62 -3 36 -6 57 -7 48 -1 -10 -7 -18 -12
-18 -6 0 -6 -7 2 -19 9 -14 9 -27 0 -52 l-11 -34 5 41 c3 25 1 45 -5 49 -6 3
-9 18 -6 33 4 20 2 18 -8 -8 -13 -34 -14 -34 -25 -13 -7 12 -9 30 -6 40 5 15
4 15 -5 3 -8 -12 -11 -12 -17 3 -6 17 -24 14 -24 -4 0 -6 4 -8 9 -4 18 11 22
-15 6 -47 -14 -29 -14 -31 0 -14 8 11 15 25 15 30 1 6 7 0 14 -13 14 -25 11
-55 -4 -46 -5 3 -25 -24 -45 -60 -20 -36 -37 -65 -39 -65 -2 0 6 26 16 57 23
67 30 136 18 166 -7 17 -9 11 -9 -27z m50 -103 c-12 -20 -14 -14 -5 12 4 9 9
14 11 11 3 -2 0 -13 -6 -23z"/>
<path d="M7588 4247 l-16 -32 -10 25 c-10 24 -11 23 -11 -12 -1 -21 -5 -38
-10 -38 -5 0 -12 -7 -15 -16 -4 -9 -2 -13 5 -8 8 4 9 -1 4 -15 -9 -28 3 -27
16 2 9 21 9 21 3 -3 -4 -14 -6 -42 -6 -63 1 -21 -7 -56 -18 -77 -22 -44 -25
-54 -10 -45 7 4 7 -3 0 -20 -13 -33 -13 -38 1 -30 6 4 1 -11 -10 -33 -20 -40
-41 -62 -41 -44 0 5 7 15 15 22 17 14 21 35 5 25 -15 -9 -12 2 6 31 28 42 12
32 -48 -28 -52 -54 -60 -68 -15 -29 22 18 50 24 44 8 -3 -7 -9 -11 -14 -10 -6
1 -28 -17 -49 -40 l-39 -42 41 38 c41 38 42 38 42 13 0 -16 -7 -28 -19 -31
-11 -4 -17 -11 -14 -16 7 -10 54 21 52 35 -1 5 4 11 12 14 9 3 11 0 6 -8 -6
-9 -4 -11 4 -6 7 5 10 11 7 14 -3 3 12 38 34 79 23 40 38 77 35 82 -2 5 0 33
6 62 15 70 16 109 6 135 -6 15 -4 31 8 54 9 17 15 34 13 36 -3 2 -12 -11 -20
-29z m-11 -94 c-3 -10 -5 -4 -5 12 0 17 2 24 5 18 2 -7 2 -21 0 -30z"/>
<path d="M5482 4210 c0 -14 2 -19 5 -12 2 6 2 18 0 25 -3 6 -5 1 -5 -13z"/>
<path d="M7631 4223 c-1 -6 -4 -20 -7 -30 -5 -17 -5 -17 6 0 6 10 9 23 6 30
-3 9 -5 9 -5 0z"/>
<path d="M7211 4110 c-40 -38 -66 -67 -57 -66 9 1 23 11 31 22 17 22 20 12 5
-17 -6 -10 -8 -19 -6 -19 3 0 15 19 27 43 12 23 35 57 52 75 51 53 27 36 -52
-38z"/>
<path d="M5542 4110 c0 -14 2 -19 5 -12 2 6 2 18 0 25 -3 6 -5 1 -5 -13z"/>
<path d="M5659 4083 c-13 -16 -12 -17 4 -4 9 7 17 15 17 17 0 8 -8 3 -21 -13z"/>
<path d="M7682 4048 c-10 -30 -10 -31 3 -14 13 17 21 46 12 46 -1 0 -8 -15
-15 -32z"/>
<path d="M7494 3992 c-17 -32 -37 -56 -43 -55 -6 2 -18 -12 -27 -30 l-16 -32
35 33 c32 31 93 129 85 137 -1 2 -17 -22 -34 -53z"/>
<path d="M7124 3993 c-15 -20 -23 -33 -16 -29 13 8 56 66 49 66 -3 0 -17 -17
-33 -37z"/>
<path d="M5720 3988 c-11 -18 -20 -40 -20 -48 1 -8 7 0 16 19 8 19 19 41 26
48 6 7 8 13 4 13 -3 0 -15 -15 -26 -32z"/>
<path d="M7676 3975 c-8 -23 -8 -27 3 -21 5 4 12 0 14 -6 4 -9 6 -8 6 2 0 8
-3 21 -8 28 -7 11 -10 10 -15 -3z"/>
<path d="M5770 3940 c-6 -11 -8 -20 -6 -20 3 0 10 9 16 20 6 11 8 20 6 20 -3
0 -10 -9 -16 -20z"/>
<path d="M5976 3912 l-19 -27 26 24 c28 26 32 31 20 31 -5 0 -17 -13 -27 -28z"/>
<path d="M6000 3888 c-23 -38 -24 -44 -8 -54 6 -4 8 -3 4 4 -3 6 3 27 15 46
11 20 18 36 15 36 -4 0 -15 -15 -26 -32z"/>
<path d="M7712 3910 c2 -8 1 -19 -4 -25 -4 -5 -18 -22 -29 -38 -11 -15 -24
-25 -29 -22 -4 3 -10 -2 -14 -10 -6 -17 9 -21 19 -5 10 17 25 1 25 -26 0 -14
4 -23 9 -19 5 3 7 21 4 39 -4 25 0 41 18 65 19 26 21 33 10 44 -11 10 -13 9
-9 -3z"/>
<path d="M5921 3844 c0 -11 3 -14 6 -6 3 7 2 16 -1 19 -3 4 -6 -2 -5 -13z"/>
<path d="M5881 3834 c0 -11 3 -14 6 -6 3 7 2 16 -1 19 -3 4 -6 -2 -5 -13z"/>
<path d="M5631 3814 c0 -11 3 -14 6 -6 3 7 2 16 -1 19 -3 4 -6 -2 -5 -13z"/>
<path d="M5970 3803 c0 -21 3 -24 9 -14 5 8 7 20 4 28 -8 21 -13 15 -13 -14z"/>
<path d="M7214 3814 c-18 -14 -18 -15 4 -4 12 6 22 13 22 15 0 8 -5 6 -26 -11z"/>
<path d="M7549 3813 c-13 -16 -12 -17 4 -4 9 7 17 15 17 17 0 8 -8 3 -21 -13z"/>
<path d="M6043 3798 c-11 -13 -28 -39 -37 -58 l-17 -35 21 25 21 25 -5 -35
c-5 -30 -5 -32 4 -11 6 13 8 32 5 41 -3 9 4 29 16 43 25 33 20 35 -8 5z"/>
<path d="M7724 3798 c-12 -14 -13 -18 -3 -10 9 6 19 9 22 5 4 -3 7 1 7 10 0
22 -3 21 -26 -5z"/>
<path d="M5931 3754 c0 -11 3 -14 6 -6 3 7 2 16 -1 19 -3 4 -6 -2 -5 -13z"/>
<path d="M6117 3763 c-11 -11 -8 -20 7 -20 8 0 12 6 9 14 -6 15 -7 15 -16 6z"/>
<path d="M5922 3695 c0 -16 2 -22 5 -12 2 9 2 23 0 30 -3 6 -5 -1 -5 -18z"/>
<path d="M6166 3695 c-9 -26 -7 -32 5 -12 6 10 9 21 6 23 -2 3 -7 -2 -11 -11z"/>
<path d="M6250 3678 l-23 -33 31 29 c34 31 37 36 24 36 -5 0 -19 -15 -32 -32z"/>
<path d="M6051 3670 c0 -8 4 -22 9 -30 12 -18 12 -2 0 25 -6 13 -9 15 -9 5z"/>
<path d="M6031 3654 c0 -11 3 -14 6 -6 3 7 2 16 -1 19 -3 4 -6 -2 -5 -13z"/>
<path d="M6151 3644 c0 -11 3 -14 6 -6 3 7 2 16 -1 19 -3 4 -6 -2 -5 -13z"/>
<path d="M6041 3604 c0 -11 3 -14 6 -6 3 7 2 16 -1 19 -3 4 -6 -2 -5 -13z"/>
<path d="M6132 3570 c0 -14 2 -19 5 -12 2 6 2 18 0 25 -3 6 -5 1 -5 -13z"/>
<path d="M6231 3574 c0 -11 3 -14 6 -6 3 7 2 16 -1 19 -3 4 -6 -2 -5 -13z"/>
<path d="M5931 3554 c0 -11 3 -14 6 -6 3 7 2 16 -1 19 -3 4 -6 -2 -5 -13z"/>
<path d="M6051 3554 c0 -11 3 -14 6 -6 3 7 2 16 -1 19 -3 4 -6 -2 -5 -13z"/>
<path d="M7832 3530 c0 -14 2 -19 5 -12 2 6 2 18 0 25 -3 6 -5 1 -5 -13z"/>
<path d="M7216 3501 c-23 -24 -34 -41 -27 -45 10 -7 15 0 12 17 0 4 3 7 8 7 5
0 19 14 31 30 29 40 22 38 -24 -9z"/>
<path d="M5940 3526 c0 -12 29 -76 34 -76 3 0 -2 17 -11 38 -16 38 -23 50 -23
38z"/>
<path d="M6221 3514 c0 -11 3 -14 6 -6 3 7 2 16 -1 19 -3 4 -6 -2 -5 -13z"/>
<path d="M6371 3474 c-20 -17 -31 -21 -31 -12 -1 19 -43 -63 -46 -89 -1 -12 2
-35 7 -50 9 -27 9 -27 4 5 -7 47 15 92 65 135 24 20 41 37 38 37 -4 0 -20 -12
-37 -26z"/>
<path d="M7005 3418 l-60 -63 63 60 c34 33 62 61 62 62 0 8 -10 -1 -65 -59z"/>
<path d="M7231 3470 c-2 -41 -65 -142 -135 -218 -42 -45 -76 -85 -76 -90 0 -4
12 8 26 26 14 18 42 41 62 52 21 10 30 19 22 20 -8 0 2 11 23 25 20 14 37 30
37 34 0 5 17 26 38 46 20 21 31 34 23 30 -9 -5 -12 -3 -9 6 3 8 10 14 16 14 5
0 14 4 19 9 5 5 3 6 -4 2 -8 -4 -13 -2 -13 6 0 7 -9 0 -19 -16 -11 -17 -18
-33 -16 -36 2 -4 -2 -7 -9 -7 -10 0 -9 11 6 44 11 24 17 49 14 56 -3 8 -5 7
-5 -3z"/>
<path d="M7461 3464 c0 -11 3 -14 6 -6 3 7 2 16 -1 19 -3 4 -6 -2 -5 -13z"/>
<path d="M7822 3460 c0 -14 2 -19 5 -12 2 6 2 18 0 25 -3 6 -5 1 -5 -13z"/>
<path d="M7644 3420 c-9 -22 -19 -38 -23 -35 -8 4 -34 -66 -27 -72 4 -4 51 84
65 120 6 15 8 27 6 27 -3 0 -12 -18 -21 -40z"/>
<path d="M7767 3425 c-3 -22 -8 -53 -11 -70 -6 -28 -5 -28 8 5 13 31 15 32 15
11 1 -18 4 -22 12 -14 7 7 6 25 -4 59 l-14 49 -6 -40z"/>
<path d="M6212 3430 c0 -14 2 -19 5 -12 2 6 2 18 0 25 -3 6 -5 1 -5 -13z"/>
<path d="M7165 3440 c-3 -5 -3 -10 1 -10 4 0 0 -6 -11 -13 -11 -9 -14 -16 -8
-20 6 -4 18 4 27 18 9 13 12 26 7 30 -5 3 -12 1 -16 -5z"/>
<path d="M6470 3420 c-18 -12 -2 -12 25 0 13 6 15 9 5 9 -8 0 -22 -4 -30 -9z"/>
<path d="M6638 3414 c-39 -21 -35 -28 5 -8 37 19 44 24 31 24 -5 -1 -21 -8
-36 -16z"/>
<path d="M6405 3375 c-19 -20 -35 -41 -35 -47 0 -10 12 1 64 60 31 35 10 25
-29 -13z"/>
<path d="M6789 3353 c-45 -48 -107 -122 -73 -88 37 37 136 145 133 145 -3 0
-29 -26 -60 -57z"/>
<path d="M7065 3368 c-16 -24 -22 -38 -14 -31 15 12 53 73 46 73 -2 0 -17 -19
-32 -42z"/>
<path d="M7360 3368 c-21 -32 -21 -32 -1 -9 12 13 21 18 21 12 0 -20 2 -26 10
-36 4 -5 11 -30 14 -55 6 -35 5 -42 -4 -30 -10 13 -11 12 -6 -3 3 -10 6 -21 6
-23 0 -3 5 -2 10 1 14 8 13 68 -1 99 -10 20 -9 29 2 43 13 16 12 17 -3 4 -18
-13 -24 -7 -19 22 2 15 -8 6 -29 -25z"/>
<path d="M6541 3344 c-28 -26 -56 -56 -62 -68 -6 -11 1 -7 15 11 15 17 45 48
69 67 23 20 39 36 36 36 -4 0 -30 -21 -58 -46z"/>
<path d="M6620 3360 c-6 -11 -8 -20 -6 -20 3 0 10 9 16 20 6 11 8 20 6 20 -3
0 -10 -9 -16 -20z"/>
<path d="M7821 3364 c0 -11 3 -14 6 -6 3 7 2 16 -1 19 -3 4 -6 -2 -5 -13z"/>
<path d="M6995 3360 c-3 -6 1 -7 9 -4 18 7 21 14 7 14 -6 0 -13 -4 -16 -10z"/>
<path d="M6122 3330 c0 -14 2 -19 5 -12 2 6 2 18 0 25 -3 6 -5 1 -5 -13z"/>
<path d="M7794 3326 c-7 -28 2 -49 17 -41 12 8 12 52 -1 60 -5 3 -12 -5 -16
-19z m13 -18 c-3 -8 -6 -5 -6 6 -1 11 2 17 5 13 3 -3 4 -12 1 -19z"/>
<path d="M6574 3318 c-19 -23 -19 -23 2 -5 11 9 24 14 29 10 4 -5 5 -2 1 5 -9
16 -10 16 -32 -10z"/>
<path d="M7731 3324 c0 -11 3 -14 6 -6 3 7 2 16 -1 19 -3 4 -6 -2 -5 -13z"/>
<path d="M6281 3314 c0 -11 3 -14 6 -6 3 7 2 16 -1 19 -3 4 -6 -2 -5 -13z"/>
<path d="M6403 3260 c0 -41 2 -58 4 -37 2 20 2 54 0 75 -2 20 -4 3 -4 -38z"/>
<path d="M6905 3290 c-25 -25 -41 -36 -46 -29 -4 7 -10 -3 -14 -22 -4 -19 -14
-46 -21 -61 -8 -16 -11 -28 -6 -28 4 0 14 16 21 35 7 19 35 59 63 90 58 64 60
74 3 15z"/>
<path d="M7344 3298 l-29 -33 33 29 c17 17 32 31 32 33 0 8 -8 1 -36 -29z"/>
<path d="M7019 3303 c-13 -16 -12 -17 4 -4 9 7 17 15 17 17 0 8 -8 3 -21 -13z"/>
<path d="M6132 3260 c0 -19 2 -27 5 -17 2 9 2 25 0 35 -3 9 -5 1 -5 -18z"/>
<path d="M6532 3263 c-26 -38 -34 -53 -29 -53 2 0 16 18 31 40 29 45 28 56 -2
13z"/>
<path d="M7834 3203 c1 -51 4 -84 8 -75 9 22 8 110 -1 142 -5 15 -7 -13 -7
-67z"/>
<path d="M7508 3262 c-3 -9 -2 -26 2 -37 6 -15 8 -10 8 18 0 40 -3 47 -10 19z"/>
<path d="M7742 3260 c0 -14 2 -19 5 -12 2 6 2 18 0 25 -3 6 -5 1 -5 -13z"/>
<path d="M6060 3254 c0 -10 5 -26 10 -34 8 -11 9 -7 4 15 -8 37 -14 45 -14 19z"/>
<path d="M7791 3263 c-1 -6 -4 -20 -7 -30 -5 -17 -5 -17 6 0 6 10 9 23 6 30
-3 9 -5 9 -5 0z"/>
<path d="M7284 3228 l-19 -23 23 19 c12 11 22 21 22 23 0 8 -8 2 -26 -19z"/>
<path d="M6649 3223 c-13 -16 -12 -17 4 -4 16 13 21 21 13 21 -2 0 -10 -8 -17
-17z"/>
<path d="M7571 3230 c0 -8 4 -24 9 -35 5 -13 9 -14 9 -5 0 8 -4 24 -9 35 -5
13 -9 14 -9 5z"/>
<path d="M6794 3202 c-38 -33 -104 -119 -104 -135 0 -7 11 5 24 27 14 21 46
61 72 87 53 54 57 63 8 21z"/>
<path d="M6141 3204 c0 -11 3 -14 6 -6 3 7 2 16 -1 19 -3 4 -6 -2 -5 -13z"/>
<path d="M6674 3208 c-14 -22 -13 -56 2 -54 7 1 17 6 21 11 4 4 2 5 -4 1 -7
-4 -13 -3 -13 1 0 5 6 15 13 22 10 11 9 12 -2 6 -11 -6 -13 -4 -8 8 7 19 2 23
-9 5z"/>
<path d="M7204 3201 c-18 -11 -35 -25 -39 -31 -6 -9 -10 -9 -16 1 -6 10 -9 10
-9 2 0 -7 8 -17 18 -23 15 -9 15 -10 0 -8 -10 2 -32 -17 -57 -51 -44 -59 -47
-66 -29 -77 8 -5 9 -2 5 9 -3 10 -3 17 2 17 5 0 14 14 21 30 7 17 21 35 32 41
17 9 18 8 10 -8 -5 -10 -7 -24 -4 -32 3 -9 0 -11 -8 -6 -9 5 -11 4 -6 -3 4 -7
3 -12 -3 -12 -6 0 -22 -20 -37 -45 -29 -50 -39 -57 -30 -22 3 13 1 36 -3 52
-5 17 -10 26 -10 20 -5 -51 -24 -143 -35 -164 -8 -16 -10 -35 -5 -51 l8 -25
-1 25 c-1 14 3 34 7 44 8 19 9 19 16 0 6 -15 8 -13 8 11 1 28 20 73 21 50 1
-5 8 3 16 19 13 22 18 26 25 15 6 -10 9 -7 9 11 0 14 11 37 25 52 14 15 25 39
25 53 0 14 5 25 10 25 6 0 10 6 10 14 0 8 15 31 34 50 38 41 35 45 -10 17z"/>
<path d="M7351 3204 c0 -11 3 -14 6 -6 3 7 2 16 -1 19 -3 4 -6 -2 -5 -13z"/>
<path d="M7821 3204 c0 -11 3 -14 6 -6 3 7 2 16 -1 19 -3 4 -6 -2 -5 -13z"/>
<path d="M6960 3190 c-6 -11 -8 -20 -6 -20 3 0 10 9 16 20 6 11 8 20 6 20 -3
0 -10 -9 -16 -20z"/>
<path d="M7451 3178 c6 -18 15 -46 19 -63 8 -29 8 -29 7 8 -1 20 -5 37 -11 37
-5 0 1 12 15 27 13 15 16 21 7 14 -14 -11 -21 -11 -33 -1 -12 10 -13 7 -4 -22z"/>
<path d="M7526 3201 c-4 -5 -2 -20 3 -33 9 -21 9 -20 8 9 -2 36 -3 38 -11 24z"/>
<path d="M6480 3179 c-7 -11 -10 -23 -7 -25 2 -2 9 7 15 21 14 30 7 33 -8 4z"/>
<path d="M6531 3184 c0 -11 3 -14 6 -6 3 7 2 16 -1 19 -3 4 -6 -2 -5 -13z"/>
<path d="M7371 3175 c-1 -11 -4 -31 -6 -45 l-6 -25 11 25 c6 13 9 33 7 45 -4
19 -4 19 -6 0z"/>
<path d="M7751 3164 c0 -11 3 -14 6 -6 3 7 2 16 -1 19 -3 4 -6 -2 -5 -13z"/>
<path d="M6605 3159 c-4 -6 -5 -12 -2 -15 2 -3 7 2 10 11 7 17 1 20 -8 4z"/>
<path d="M7410 3139 c0 -22 -16 -34 -23 -17 -3 7 -6 4 -7 -7 -1 -11 -3 -29 -4
-40 -1 -11 1 -45 5 -75 6 -55 6 -55 8 22 0 49 5 80 14 85 6 4 17 17 24 29 9
17 8 21 -3 21 -8 0 -14 -8 -14 -18z"/>
<path d="M7511 3144 c0 -11 3 -14 6 -6 3 7 2 16 -1 19 -3 4 -6 -2 -5 -13z"/>
<path d="M7000 3108 c-6 -24 -15 -52 -19 -64 -5 -11 -6 -36 -1 -55 l8 -34 1
45 c1 25 10 69 20 98 10 28 14 52 10 52 -5 0 -13 -19 -19 -42z"/>
<path d="M7061 3119 c-6 -18 -11 -37 -10 -43 0 -6 7 7 15 28 8 22 12 41 10 43
-2 2 -9 -10 -15 -28z"/>
<path d="M7331 3134 c0 -11 3 -14 6 -6 3 7 2 16 -1 19 -3 4 -6 -2 -5 -13z"/>
<path d="M6621 3083 c-17 -35 -27 -63 -22 -63 5 0 14 14 20 32 6 17 18 40 27
49 9 10 14 24 12 31 -3 7 -19 -15 -37 -49z"/>
<path d="M6926 3125 c-9 -26 -7 -32 5 -12 6 10 9 21 6 23 -2 3 -7 -2 -11 -11z"/>
<path d="M7701 3124 c0 -11 3 -14 6 -6 3 7 2 16 -1 19 -3 4 -6 -2 -5 -13z"/>
<path d="M7721 3123 c-1 -6 -4 -20 -7 -30 -5 -17 -5 -17 6 0 6 10 9 23 6 30
-3 9 -5 9 -5 0z"/>
<path d="M6302 3095 c0 -16 2 -22 5 -12 2 9 2 23 0 30 -3 6 -5 -1 -5 -18z"/>
<path d="M6788 3065 c-35 -45 -44 -52 -50 -38 -4 13 -7 8 -7 -15 -1 -18 -6
-43 -13 -55 -10 -20 -10 -21 5 -8 10 7 17 19 17 27 0 7 23 42 50 78 28 36 48
66 46 66 -3 0 -24 -25 -48 -55z"/>
<path d="M6946 3079 c-25 -30 -26 -30 -27 -7 0 20 -2 20 -11 -7 -10 -29 -97
-132 -108 -128 -3 1 -6 -17 -7 -40 l-2 -42 14 40 c8 22 26 48 40 58 14 10 22
24 19 30 -5 9 -4 9 5 1 9 -8 9 -18 1 -38 -5 -15 -10 -42 -10 -59 1 -28 4 -24
25 32 14 35 22 68 18 75 -3 6 -3 8 2 4 8 -8 35 35 35 55 0 6 10 21 22 34 12
13 19 23 16 23 -4 0 -18 -14 -32 -31z m-52 -74 c-4 -8 -11 -15 -16 -15 -6 0
-5 6 2 15 7 8 14 15 16 15 2 0 1 -7 -2 -15z"/>
<path d="M7322 3090 c0 -14 2 -19 5 -12 2 6 2 18 0 25 -3 6 -5 1 -5 -13z"/>
<path d="M7741 3094 c0 -11 3 -14 6 -6 3 7 2 16 -1 19 -3 4 -6 -2 -5 -13z"/>
<path d="M7302 3085 c0 -11 3 -29 8 -40 11 -25 11 1 0 35 -6 20 -8 21 -8 5z"/>
<path d="M7776 3083 c-6 -14 -5 -15 5 -6 7 7 10 15 7 18 -3 3 -9 -2 -12 -12z"/>
<path d="M6711 3039 c-12 -28 -20 -53 -17 -56 3 -3 8 3 11 13 4 10 13 34 21
53 8 18 13 35 11 38 -2 2 -14 -19 -26 -48z"/>
<path d="M7353 3071 c0 -11 5 -18 9 -15 4 3 5 11 1 19 -7 21 -12 19 -10 -4z"/>
<path d="M7821 3064 c0 -11 3 -14 6 -6 3 7 2 16 -1 19 -3 4 -6 -2 -5 -13z"/>
<path d="M7680 3065 c0 -5 4 -16 9 -23 6 -11 10 -10 15 4 3 9 4 19 1 22 -3 3
-5 -1 -5 -9 0 -11 -2 -11 -10 1 -5 8 -10 11 -10 5z"/>
<path d="M6311 3044 c0 -11 3 -14 6 -6 3 7 2 16 -1 19 -3 4 -6 -2 -5 -13z"/>
<path d="M6571 3044 c0 -11 3 -14 6 -6 3 7 2 16 -1 19 -3 4 -6 -2 -5 -13z"/>
<path d="M7731 3044 c0 -11 3 -14 6 -6 3 7 2 16 -1 19 -3 4 -6 -2 -5 -13z"/>
<path d="M7270 3037 c0 -5 5 -17 11 -28 8 -16 5 -29 -15 -65 -14 -24 -21 -42
-15 -39 14 9 61 106 55 113 -3 3 -6 -1 -6 -9 -1 -8 -7 -3 -15 11 -8 14 -14 21
-15 17z"/>
<path d="M7431 3033 c-1 -6 -4 -20 -7 -30 -5 -17 -5 -17 6 0 6 10 9 23 6 30
-3 9 -5 9 -5 0z"/>
<path d="M7781 3024 c0 -11 3 -14 6 -6 3 7 2 16 -1 19 -3 4 -6 -2 -5 -13z"/>
<path d="M7192 3018 c-7 -7 -12 -20 -12 -30 0 -36 -33 -87 -59 -91 -17 -3 -14
-4 7 -3 33 2 33 1 27 -32 -4 -21 -2 -39 6 -48 11 -13 14 -12 26 8 l14 23 -6
-25 c-3 -14 5 -3 19 24 14 27 24 52 23 55 0 3 9 26 21 50 15 30 19 48 12 55
-7 7 -10 4 -10 -8 0 -18 -57 -82 -65 -74 -3 3 -1 27 4 54 10 55 10 59 -7 42z
m28 -105 c0 -5 -14 -28 -30 -53 l-30 -45 6 35 c4 19 14 43 22 53 16 18 32 23
32 10z"/>
<path d="M7122 2995 c0 -16 2 -22 5 -12 2 9 2 23 0 30 -3 6 -5 -1 -5 -18z"/>
<path d="M7152 2990 c0 -19 2 -27 5 -17 2 9 2 25 0 35 -3 9 -5 1 -5 -18z"/>
<path d="M7720 3011 c0 -5 5 -13 10 -16 6 -3 10 -2 10 4 0 5 -4 13 -10 16 -5
3 -10 2 -10 -4z"/>
<path d="M6610 3005 c0 -5 5 -17 10 -25 5 -8 10 -10 10 -5 0 6 -5 17 -10 25
-5 8 -10 11 -10 5z"/>
<path d="M7338 2963 c-2 -10 -1 -31 3 -48 6 -26 7 -23 8 18 1 48 -3 61 -11 30z"/>
<path d="M7375 2900 c-25 -52 -42 -75 -47 -67 -6 9 -8 9 -8 0 0 -30 21 -20 41
18 15 30 23 38 29 29 5 -7 4 -20 0 -29 -21 -42 -46 -117 -42 -129 2 -7 17 24
32 69 22 61 26 86 18 98 -8 13 -6 26 7 50 9 18 15 35 13 37 -2 2 -22 -32 -43
-76z"/>
<path d="M7827 2945 c-9 -19 -15 -35 -12 -35 7 0 37 61 33 66 -3 2 -12 -12
-21 -31z"/>
<path d="M7741 2922 c-1 -57 -90 -230 -111 -217 -8 5 -22 -36 -15 -43 2 -2 16
15 31 38 20 30 30 38 36 28 6 -8 7 -5 3 11 -5 16 -4 21 4 17 6 -4 11 0 11 11
1 10 7 29 15 43 13 23 14 17 13 -68 0 -51 3 -97 8 -102 5 -5 8 28 6 81 -3 79
2 124 23 219 5 21 4 22 -3 5 l-9 -20 -5 20 c-3 11 -6 1 -7 -23z"/>
<path d="M7297 2875 c-15 -30 -25 -55 -22 -55 7 0 57 101 53 106 -2 2 -16 -21
-31 -51z"/>
<path d="M7416 2915 c-9 -26 -7 -32 5 -12 6 10 9 21 6 23 -2 3 -7 -2 -11 -11z"/>
<path d="M7522 2905 c0 -16 2 -22 5 -12 2 9 2 23 0 30 -3 6 -5 -1 -5 -18z"/>
<path d="M7687 2915 c-4 -8 -2 -17 3 -20 6 -4 10 3 10 14 0 25 -6 27 -13 6z"/>
<path d="M6913 2865 c0 -22 2 -30 4 -17 2 12 2 30 0 40 -3 9 -5 -1 -4 -23z"/>
<path d="M7811 2884 c0 -11 3 -14 6 -6 3 7 2 16 -1 19 -3 4 -6 -2 -5 -13z"/>
<path d="M6571 2864 c0 -11 3 -14 6 -6 3 7 2 16 -1 19 -3 4 -6 -2 -5 -13z"/>
<path d="M7331 2864 c0 -11 3 -14 6 -6 3 7 2 16 -1 19 -3 4 -6 -2 -5 -13z"/>
<path d="M7543 2873 c-7 -2 -13 -12 -13 -20 0 -9 -9 -32 -21 -52 -12 -21 -14
-28 -4 -16 9 11 21 19 26 18 5 -2 9 6 9 18 0 11 5 29 10 40 6 10 9 19 8 18 -2
0 -9 -3 -15 -6z"/>
<path d="M7827 2863 c-4 -3 -7 -22 -7 -40 0 -19 -5 -44 -11 -55 -8 -15 -8 -19
0 -14 15 10 13 -20 -4 -68 -7 -21 -11 -45 -8 -54 4 -10 2 -13 -5 -8 -7 4 -12
3 -12 -3 0 -14 17 -23 24 -13 11 18 40 262 31 262 -1 0 -5 -3 -8 -7z"/>
<path d="M7769 2804 c-1 -32 -1 -62 0 -67 1 -4 -3 -24 -7 -45 -5 -21 -5 -46
-1 -57 6 -16 8 -12 8 15 1 19 8 48 16 63 8 15 10 25 6 22 -5 -3 -9 22 -9 56 0
79 -12 90 -13 13z"/>
<path d="M6582 2820 c0 -14 2 -19 5 -12 2 6 2 18 0 25 -3 6 -5 1 -5 -13z"/>
<path d="M6913 2785 c0 -22 2 -30 4 -17 2 12 2 30 0 40 -3 9 -5 -1 -4 -23z"/>
<path d="M7460 2811 c0 -5 -2 -15 -5 -23 -3 -7 1 -22 8 -32 11 -15 16 -16 22
-6 5 8 4 11 -2 7 -14 -9 -23 15 -16 42 3 12 3 21 -1 21 -3 0 -6 -4 -6 -9z"/>
<path d="M7282 2770 l-1 -45 19 35 c11 19 19 40 19 45 0 6 -6 -1 -13 -15 l-14
-24 -5 24 c-2 15 -5 6 -5 -20z"/>
<path d="M6988 2794 c-5 -4 -8 -21 -8 -38 1 -26 2 -28 11 -13 11 19 8 63 -3
51z"/>
<path d="M7565 2779 c-4 -6 -5 -12 -2 -15 2 -3 7 2 10 11 7 17 1 20 -8 4z"/>
<path d="M7211 2744 c0 -11 3 -14 6 -6 3 7 2 16 -1 19 -3 4 -6 -2 -5 -13z"/>
<path d="M7433 2745 c-8 -8 -8 -16 -1 -23 7 -7 6 -17 -1 -31 -7 -12 -9 -21 -7
-21 3 0 13 14 21 30 18 34 9 68 -12 45z"/>
<path d="M6570 2735 c0 -5 5 -17 10 -25 5 -8 10 -10 10 -5 0 6 -5 17 -10 25
-5 8 -10 11 -10 5z"/>
<path d="M7092 2720 c0 -14 2 -19 5 -12 2 6 2 18 0 25 -3 6 -5 1 -5 -13z"/>
<path d="M7202 2700 c0 -14 2 -19 5 -12 2 6 2 18 0 25 -3 6 -5 1 -5 -13z"/>
<path d="M7271 2704 c0 -11 3 -14 6 -6 3 7 2 16 -1 19 -3 4 -6 -2 -5 -13z"/>
<path d="M7705 2689 c-4 -6 -5 -12 -2 -15 2 -3 7 2 10 11 7 17 1 20 -8 4z"/>
<path d="M7652 2665 c-17 -37 -14 -45 4 -12 9 16 14 31 11 33 -2 2 -9 -7 -15
-21z"/>
<path d="M7836 2664 c-4 -14 -5 -28 -3 -31 3 -2 8 8 11 23 4 14 5 28 3 31 -3
2 -8 -8 -11 -23z"/>
<path d="M7581 2603 c-10 -26 -10 -27 4 -9 8 11 15 23 15 28 0 15 -7 8 -19
-19z"/>
<path d="M7862 2590 c0 -14 2 -19 5 -12 2 6 2 18 0 25 -3 6 -5 1 -5 -13z"/>
<path d="M7750 2595 c0 -5 5 -17 10 -25 5 -8 10 -10 10 -5 0 6 -5 17 -10 25
-5 8 -10 11 -10 5z"/>
<path d="M7170 2560 c-6 -11 -8 -20 -6 -20 3 0 10 9 16 20 6 11 8 20 6 20 -3
0 -10 -9 -16 -20z"/>
<path d="M7810 2460 c-6 -11 -8 -20 -6 -20 3 0 10 9 16 20 6 11 8 20 6 20 -3
0 -10 -9 -16 -20z"/>
<path d="M7679 2453 c-13 -16 -12 -17 4 -4 16 13 21 21 13 21 -2 0 -10 -8 -17
-17z"/>
<path d="M7856 2425 c-9 -26 -7 -32 5 -12 6 10 9 21 6 23 -2 3 -7 -2 -11 -11z"/>
<path d="M7774 2408 l-19 -23 23 19 c12 11 22 21 22 23 0 8 -8 2 -26 -19z"/>
<path d="M7836 2373 c-6 -14 -5 -15 5 -6 7 7 10 15 7 18 -3 3 -9 -2 -12 -12z"/>
<path d="M4336 7505 c-3 -9 -6 -22 -5 -28 0 -7 5 -1 10 12 5 13 8 26 5 28 -2
2 -6 -3 -10 -12z"/>
<path d="M7712 5850 c0 -14 2 -19 5 -12 2 6 2 18 0 25 -3 6 -5 1 -5 -13z"/>
<path d="M7662 5785 c-17 -37 -14 -45 4 -12 9 16 14 31 11 33 -2 2 -9 -7 -15
-21z"/>
<path d="M7695 5783 c-3 -15 -11 -31 -17 -34 -7 -4 -7 -9 0 -13 10 -6 38 61
29 70 -2 3 -8 -8 -12 -23z"/>
<path d="M7340 5681 c-7 -26 -15 -39 -22 -35 -7 4 -8 3 -4 -5 10 -15 23 -6 42
31 11 20 12 34 6 40 -7 7 -14 -3 -22 -31z"/>
<path d="M7316 5685 c-9 -26 -7 -32 5 -12 6 10 9 21 6 23 -2 3 -7 -2 -11 -11z"/>
<path d="M7537 5673 c-3 -5 -2 -15 2 -22 5 -7 11 -9 14 -4 3 5 2 15 -2 22 -5
7 -11 9 -14 4z"/>
<path d="M7771 5505 c-5 -19 -19 -48 -31 -65 -14 -20 -17 -30 -8 -28 7 2 16 8
20 13 5 6 8 6 8 -2 0 -7 -16 -29 -35 -50 -19 -21 -35 -41 -35 -45 0 -12 18
-10 25 2 4 6 10 8 14 5 5 -2 16 15 26 38 9 23 23 57 31 75 15 36 18 69 3 37
-7 -15 -8 -11 -5 18 6 46 0 48 -13 2z"/>
<path d="M7636 5482 c-2 -4 -1 -14 3 -21 6 -10 10 -9 14 3 6 16 -8 32 -17 18z"/>
<path d="M7549 5313 c-13 -16 -12 -17 4 -4 16 13 21 21 13 21 -2 0 -10 -8 -17
-17z"/>
<path d="M7629 5313 c-13 -16 -12 -17 4 -4 16 13 21 21 13 21 -2 0 -10 -8 -17
-17z"/>
<path d="M8120 14525 c0 -2 97 -136 216 -297 212 -288 216 -292 249 -289 18 1
36 -2 40 -8 3 -6 14 -11 23 -11 27 1 687 276 685 286 -1 5 -142 46 -315 90
-659 171 -898 232 -898 229z"/>
<path d="M9170 14099 c-91 -38 -243 -101 -337 -140 -126 -52 -173 -76 -173
-88 0 -9 -7 -26 -15 -38 -14 -20 0 -49 256 -515 149 -271 275 -497 280 -502 5
-5 10 -8 13 -5 2 2 45 302 96 666 95 681 97 696 56 692 -6 -1 -85 -32 -176
-70z"/>
<path d="M9331 13553 c-46 -324 -88 -623 -94 -666 -9 -71 -9 -79 8 -91 10 -7
21 -31 24 -53 6 -40 19 -51 706 -606 384 -312 701 -565 703 -563 5 6 -1250
2566 -1258 2566 -4 0 -44 -264 -89 -587z"/>
<path d="M9553 13950 c99 -205 1052 -2151 1122 -2290 26 -52 49 -90 51 -85 5
15 114 1044 114 1075 0 15 -9 35 -21 46 -16 14 -20 27 -16 54 4 35 -4 43 -665
705 l-669 670 84 -175z"/>
<path d="M8561 13778 c-4 -13 -108 -294 -231 -626 -123 -331 -221 -604 -218
-607 2 -3 232 41 511 96 l506 102 12 28 c11 27 5 40 -78 191 -49 90 -172 315
-273 500 -188 343 -208 371 -229 316z"/>
<path d="M8600 12608 c-272 -55 -496 -101 -498 -103 -2 -1 164 -513 369 -1136
204 -624 405 -1239 447 -1366 42 -128 78 -233 82 -233 3 0 45 652 94 1450 l89
1450 -24 19 c-13 11 -33 20 -44 20 -11 -1 -243 -46 -515 -101z"/>
<path d="M9238 12685 c-5 -5 74 -322 588 -2357 87 -346 161 -628 164 -628 10
0 695 1715 693 1735 -1 11 -6 39 -10 62 -8 42 -21 53 -683 589 -812 657 -746
605 -752 599z"/>
<path d="M10871 12640 c-1 -8 -26 -250 -57 -538 l-56 -523 20 -22 c11 -12 22
-35 24 -51 3 -26 26 -43 232 -168 126 -76 235 -137 242 -134 10 4 11 12 4 33
-5 15 -95 332 -200 703 -184 654 -208 732 -209 700z"/>
<path d="M9210 12625 c0 -5 -40 -658 -89 -1449 l-88 -1440 31 -31 32 -32 410
-10 c408 -10 409 -10 429 10 20 21 20 21 -225 992 -321 1278 -498 1972 -500
1960z"/>
<path d="M10768 11443 c-17 -4 -18 -72 -17 -1256 l1 -1252 268 1074 c262 1051
267 1074 249 1092 -11 11 -19 31 -19 47 -1 25 -21 39 -226 162 -123 74 -228
136 -232 136 -4 1 -15 0 -24 -3z"/>
<path d="M10643 11234 c-39 -98 -195 -487 -347 -864 -182 -454 -271 -687 -263
-692 6 -4 13 -27 16 -51 6 -42 25 -67 330 -406 178 -199 328 -358 333 -353 4
4 7 579 6 1277 l-3 1269 -72 -180z"/>
<path d="M11293 10975 c-46 -156 -523 -2109 -517 -2115 5 -5 114 64 242 152
213 147 232 162 232 189 0 27 24 62 49 70 8 3 10 234 9 874 -2 693 -5 862 -15
830z"/>
<path d="M8528 9587 c-219 -28 -398 -53 -398 -56 1 -13 481 -336 493 -332 6 2
26 6 44 9 29 4 43 21 162 203 121 184 143 231 107 228 -6 -1 -190 -24 -408
-52z"/>
<path d="M9063 9616 c-14 -17 -32 -26 -50 -26 -27 0 -40 -17 -161 -201 -73
-111 -131 -204 -128 -207 3 -2 265 94 582 214 390 148 570 220 557 225 -10 3
-189 10 -398 13 l-380 7 -22 -25z"/>
<path d="M9335 9374 c-308 -117 -564 -215 -570 -218 -5 -3 172 -2 394 1 l403
6 24 24 c13 13 35 23 51 23 24 1 39 16 110 118 45 64 105 150 133 190 40 56
47 72 33 71 -10 -1 -270 -97 -578 -215z"/>
<path d="M9926 9526 c-13 -17 -72 -98 -130 -181 -89 -124 -106 -154 -101 -175
4 -14 8 -27 10 -28 7 -8 950 -302 958 -299 5 1 -134 163 -310 359 l-318 356
-43 0 c-36 -1 -47 -5 -66 -32z"/>
<path d="M8104 9489 c3 -8 69 -291 147 -629 78 -338 144 -623 148 -632 3 -9
56 174 120 413 106 400 113 431 97 448 -9 9 -16 31 -16 47 -1 27 -21 43 -236
192 -245 170 -267 184 -260 161z"/>
<path d="M11399 9267 c-10 -14 -15 -34 -11 -55 4 -29 12 -37 74 -68 39 -19 73
-33 76 -29 9 9 -70 165 -84 165 -7 0 -18 2 -26 5 -7 2 -20 -6 -29 -18z"/>
<path d="M11040 8990 c-224 -153 -235 -162 -238 -195 -2 -22 -11 -40 -25 -50
l-21 -15 33 -397 c34 -424 41 -496 48 -490 8 9 443 1291 441 1299 -2 5 -109
-64 -238 -152z"/>
<path d="M11348 9137 c-14 -11 -19 -54 -32 -284 -9 -148 -16 -285 -15 -304 0
-28 23 12 119 210 95 192 117 247 110 261 -6 10 -10 28 -10 39 0 16 -17 30
-70 56 -78 39 -78 39 -102 22z"/>
<path d="M8870 9122 c-135 -3 -135 -4 -158 -32 -22 -28 -22 -32 -11 -119 9
-68 15 -91 26 -91 8 0 27 -7 42 -16 25 -15 37 -11 391 121 200 75 366 138 369
141 5 4 -434 2 -659 -4z"/>
<path d="M9681 9086 l-21 -23 19 -128 c12 -84 23 -131 31 -133 8 -3 24 -16 36
-29 l22 -24 403 26 c222 14 417 29 433 33 28 7 -82 44 -816 273 l-87 27 -20
-22z"/>
<path d="M9165 8954 c-209 -79 -378 -143 -375 -144 3 0 88 -7 190 -15 l185
-14 26 25 c14 13 37 24 52 24 25 0 60 -24 68 -48 2 -6 71 -15 156 -22 l153
-12 24 29 c14 16 23 36 21 48 -4 20 -35 232 -35 240 0 3 -6 5 -14 5 -7 0 -19
7 -26 15 -7 8 -20 14 -29 14 -9 -1 -187 -66 -396 -145z"/>
<path d="M11247 8938 c-26 -73 -121 -351 -212 -618 -149 -436 -165 -488 -156
-516 14 -39 14 -70 0 -93 -10 -15 13 -69 141 -332 84 -173 157 -318 162 -323
4 -6 8 2 8 18 0 15 16 315 35 666 l35 639 -25 25 c-14 14 -25 36 -25 48 0 29
26 68 46 68 10 0 14 12 14 38 1 20 7 143 14 272 8 129 13 236 11 238 -1 1 -23
-57 -48 -130z"/>
<path d="M8546 8624 c-60 -228 -106 -417 -103 -421 7 -6 24 7 168 122 67 53
75 63 75 94 0 23 7 39 22 52 l22 18 -15 122 c-13 106 -18 126 -40 149 -29 30
-32 66 -9 98 12 18 14 36 9 90 -4 37 -10 72 -14 79 -3 6 -55 -175 -115 -403z"/>
<path d="M11439 8723 c-57 -119 -102 -221 -100 -227 3 -6 5 -27 5 -46 1 -28 7
-38 31 -52 41 -24 64 -22 70 5 12 47 103 532 101 535 -2 1 -50 -95 -107 -215z"/>
<path d="M8758 8757 l-28 -22 15 -120 c11 -90 19 -123 32 -133 10 -7 22 -11
28 -8 6 2 93 60 192 128 124 85 179 129 174 137 -5 8 -71 17 -192 26 -101 8
-186 14 -189 14 -3 0 -17 -10 -32 -22z"/>
<path d="M10213 8751 c-210 -15 -385 -30 -388 -32 -3 -3 40 -16 96 -28 88 -20
103 -21 117 -8 43 36 97 26 115 -22 10 -26 18 -30 108 -51 89 -20 100 -20 114
-7 22 23 52 30 74 17 18 -9 34 0 120 67 55 43 100 81 100 86 1 9 -13 9 -456
-22z"/>
<path d="M9305 8730 c-10 -15 217 -390 235 -387 9 1 32 59 65 163 l52 161 -21
26 c-20 25 -28 27 -156 37 -166 12 -167 12 -175 0z"/>
<path d="M10590 8665 c-55 -43 -95 -82 -96 -92 -2 -66 -30 -92 -91 -80 -20 4
-40 -6 -87 -43 l-61 -48 -313 -64 c-172 -35 -312 -68 -310 -73 1 -7 847 -363
1103 -465 14 -5 28 -2 43 11 l23 18 -37 448 c-22 267 -42 451 -48 455 -20 14
-30 8 -126 -67z"/>
<path d="M9005 8571 c-101 -69 -185 -132 -185 -138 0 -7 1 -13 3 -13 1 0 151
-27 332 -60 251 -46 331 -57 337 -48 8 14 -1 30 -131 243 l-86 140 -43 1 c-39
1 -59 -10 -227 -125z"/>
<path d="M9750 8691 c0 -7 -15 -18 -33 -26 -32 -13 -35 -20 -82 -169 -27 -86
-46 -159 -42 -162 11 -11 426 269 427 287 0 12 -29 22 -122 44 -68 15 -129 30
-135 33 -7 2 -13 -1 -13 -7z"/>
<path d="M10150 8591 c0 -6 23 -43 51 -81 l50 -70 55 42 c33 25 54 47 52 57
-5 25 -208 75 -208 52z"/>
<path d="M9837 8448 c-108 -72 -195 -133 -193 -135 3 -4 534 102 564 112 8 3
-5 28 -39 75 -42 58 -55 70 -79 70 -16 0 -34 2 -42 5 -7 3 -102 -54 -211 -127z"/>
<path d="M8803 8368 l-22 -24 116 -779 c64 -429 119 -783 122 -787 3 -4 115
317 249 714 223 659 242 722 228 737 -9 10 -16 23 -16 29 0 12 -15 15 -360 78
-140 25 -264 48 -275 50 -13 3 -29 -3 -42 -18z"/>
<path d="M11286 8303 c-3 -49 -13 -221 -21 -383 -8 -162 -17 -314 -19 -337 -4
-46 -1 -50 27 -29 15 11 32 86 82 353 62 333 63 338 44 359 -11 12 -19 35 -19
57 0 30 -5 39 -30 52 -53 27 -57 23 -64 -72z"/>
<path d="M8588 8264 c-99 -79 -118 -99 -118 -122 0 -15 -7 -38 -16 -50 -14
-21 -6 -51 126 -489 90 -298 148 -472 158 -478 45 -28 64 -56 58 -86 -5 -26 6
-46 91 -159 54 -71 98 -128 99 -127 2 3 -236 1590 -239 1593 -1 1 -11 4 -22 7
-15 5 -50 -18 -137 -89z"/>
<path d="M9573 8211 c-38 -19 -10 56 -292 -783 -122 -361 -224 -664 -227 -672
-4 -10 -1 -16 8 -16 9 0 163 87 344 193 181 107 554 326 829 487 275 161 506
298 513 304 10 10 10 15 0 28 -11 13 -1128 481 -1139 477 -2 -1 -18 -9 -36
-18z"/>
<path d="M8400 8060 c-25 -94 -298 -1196 -296 -1197 1 -1 125 42 275 96 261
94 274 100 293 133 l20 34 -136 450 c-126 416 -152 497 -156 484z"/>
<path d="M10219 7374 c-305 -179 -681 -400 -837 -491 -155 -92 -281 -167 -280
-169 2 -1 457 59 1011 134 l1009 137 14 28 c14 26 9 38 -142 350 -86 177 -157
322 -158 323 -1 1 -15 4 -32 7 -28 5 -94 -31 -585 -319z"/>
<path d="M11236 7399 c-3 -34 -5 -80 -5 -103 1 -32 5 -22 19 49 15 72 16 93 6
103 -11 11 -14 2 -20 -49z"/>
<path d="M11297 7420 c-3 -8 -20 -95 -38 -193 l-32 -178 20 -21 c17 -17 26
-18 56 -10 19 6 49 25 65 43 l29 32 -38 145 c-48 180 -55 202 -62 182z"/>
<path d="M8383 6927 c-139 -50 -249 -95 -245 -99 4 -4 108 -53 230 -108 216
-97 224 -99 248 -84 28 19 26 13 57 201 l24 143 -22 20 c-12 11 -25 20 -31 19
-5 0 -123 -42 -261 -92z"/>
<path d="M11305 6989 c-18 -6 -40 -25 -54 -46 l-23 -38 43 -264 c33 -196 46
-256 51 -235 4 16 24 143 43 282 l36 253 -28 29 c-15 17 -30 30 -33 29 -3 0
-18 -5 -35 -10z"/>
<path d="M8748 6983 c-22 -5 -22 -5 -48 -180 -22 -146 -23 -153 -6 -172 14
-15 23 -18 44 -11 15 5 66 21 114 35 75 22 88 29 96 53 8 24 0 39 -81 147
-106 141 -98 133 -119 128z"/>
<path d="M11466 6965 c-10 -8 -22 -16 -27 -17 -7 -3 -92 -578 -86 -584 6 -6
252 452 250 466 -13 77 -17 89 -36 98 -12 6 -35 20 -52 31 -26 17 -32 18 -49
6z"/>
<path d="M10085 6814 c-539 -73 -983 -134 -988 -134 -4 0 -13 -11 -19 -25 -6
-14 -25 -30 -43 -36 -29 -11 -34 -20 -73 -137 -37 -113 -40 -127 -27 -146 18
-24 19 -49 4 -90 -9 -28 6 -74 179 -516 175 -450 191 -485 216 -491 25 -7 83
47 874 808 466 448 867 835 892 859 l45 44 -40 -1 c-22 -1 -481 -61 -1020
-135z"/>
<path d="M10255 6048 c-836 -806 -871 -840 -867 -871 4 -30 19 -41 289 -201
157 -93 290 -169 297 -168 6 1 25 4 43 8 35 7 -53 -156 762 1398 193 368 350
670 349 671 -2 1 -395 -375 -873 -837z"/>
<path d="M11155 6644 c-31 -183 -37 -229 -27 -242 7 -9 18 -29 25 -45 14 -33
109 -69 129 -49 9 9 2 73 -32 274 -24 145 -46 269 -49 275 -4 7 -24 -89 -46
-213z"/>
<path d="M10820 6223 c-183 -351 -355 -678 -381 -728 -26 -49 -117 -224 -203
-387 -86 -164 -156 -303 -156 -309 0 -6 7 -8 16 -5 8 3 170 70 360 148 302
124 344 144 344 163 0 23 28 55 48 55 15 0 15 -2 72 320 38 217 46 277 36 285
-7 6 -18 21 -25 33 -17 32 2 80 35 88 28 7 25 -3 63 217 29 166 29 169 10 188
-37 37 -19 106 31 121 10 3 25 64 52 219 20 118 36 218 35 222 -1 5 -153 -278
-337 -630z"/>
<path d="M11506 6570 c-119 -217 -135 -252 -126 -271 9 -17 18 -20 43 -15 18
3 103 8 189 12 149 6 158 8 178 31 l20 24 -66 217 c-68 223 -79 252 -93 252
-4 0 -69 -112 -145 -250z"/>
<path d="M8836 6616 c-98 -29 -111 -36 -119 -60 -8 -24 -2 -34 50 -97 32 -39
63 -77 69 -85 6 -8 20 -14 31 -14 16 0 27 23 64 130 58 170 57 171 -95 126z"/>
<path d="M8350 6380 c-118 -72 -216 -133 -218 -138 -1 -4 34 -19 78 -34 67
-22 81 -24 91 -12 6 8 26 14 44 14 30 0 38 9 134 150 56 83 99 150 94 150 -4
-1 -105 -59 -223 -130z"/>
<path d="M8510 6346 c-61 -89 -105 -163 -100 -164 6 -2 90 19 188 48 97 28
184 53 194 56 9 3 19 16 22 30 6 21 -5 39 -63 108 -60 71 -74 83 -101 83 -29
0 -38 -11 -140 -161z"/>
<path d="M11126 6285 c-10 -8 -23 -16 -28 -17 -10 -4 -70 -323 -66 -350 2 -11
45 40 116 136 135 187 140 204 59 229 -63 20 -57 20 -81 2z"/>
<path d="M11507 6261 c-98 -6 -116 -14 -117 -49 0 -7 54 -82 120 -166 91 -117
124 -152 141 -151 18 1 31 27 84 163 55 141 61 166 51 187 -11 24 -15 25 -96
23 -47 -1 -129 -4 -183 -7z"/>
<path d="M8613 6202 c-181 -52 -193 -57 -202 -84 -14 -39 -52 -55 -96 -39 -31
11 -40 9 -126 -31 l-92 -43 284 -347 c221 -269 287 -344 299 -338 12 6 35 121
93 454 l78 445 -20 20 c-12 12 -22 21 -23 20 -2 -1 -89 -26 -195 -57z"/>
<path d="M8806 5772 l-78 -448 24 -36 23 -35 215 -27 c118 -14 226 -26 239
-26 59 0 58 4 -142 519 -104 267 -192 489 -196 493 -3 4 -42 -194 -85 -440z"/>
<path d="M11169 6030 c-102 -141 -115 -162 -111 -193 4 -32 9 -36 102 -82 96
-47 99 -48 124 -31 l26 17 -2 221 c-2 137 -7 223 -13 224 -5 2 -62 -68 -126
-156z"/>
<path d="M11343 6183 c-10 -4 -13 -58 -13 -228 l0 -223 29 -11 c25 -11 37 -8
125 36 69 34 96 53 96 66 0 10 4 27 10 37 8 15 -10 44 -106 167 -133 171 -125
162 -141 156z"/>
<path d="M8745 5200 c-20 -22 -55 -26 -85 -10 -15 8 -60 -9 -225 -87 -113 -53
-203 -98 -201 -100 2 -2 218 33 481 79 263 45 474 83 469 85 -8 2 -405 53
-416 53 -3 0 -13 -9 -23 -20z"/>
<path d="M8693 5045 c-293 -51 -537 -95 -542 -97 -6 -1 121 -65 282 -141 235
-111 295 -136 309 -128 10 6 34 11 53 11 32 0 49 14 213 183 236 240 259 267
236 266 -11 -1 -258 -43 -551 -94z"/>
<path d="M9355 5108 c-9 -6 -30 -8 -46 -6 -26 4 -47 -15 -244 -218 -118 -122
-215 -225 -215 -228 0 -3 12 -6 28 -6 46 0 1025 100 1057 108 32 9 62 -11
-466 302 -74 44 -100 55 -114 48z"/>
<path d="M10450 4905 c-257 -107 -346 -148 -348 -162 -5 -23 -42 -63 -59 -63
-7 0 -13 -4 -13 -9 0 -4 -47 -262 -105 -572 -57 -309 -103 -564 -102 -565 1
-2 110 162 242 364 219 334 240 370 237 404 -3 29 2 43 22 63 14 14 34 25 44
25 14 0 75 85 227 318 212 324 223 343 209 341 -5 0 -164 -65 -354 -144z"/>
<path d="M9371 4665 c-481 -51 -505 -54 -521 -76 -17 -22 -12 -32 187 -438
113 -229 229 -467 259 -528 39 -83 58 -113 71 -113 14 0 90 144 315 590 178
352 295 595 292 604 -9 22 -26 21 -603 -39z"/>
<path d="M9697 4056 c-169 -333 -284 -572 -281 -581 5 -13 31 -15 161 -15
l156 0 25 27 c22 24 34 80 127 577 56 303 102 552 100 554 -1 1 -131 -252
-288 -562z"/>
<path d="M8421 4236 c-234 -234 -321 -327 -315 -337 9 -15 879 -1095 900
-1118 8 -8 16 -13 18 -10 2 2 -9 96 -24 209 -16 113 -72 511 -124 884 -89 637
-100 695 -126 696 -3 0 -151 -146 -329 -324z"/>
<path d="M8824 4480 c3 -19 58 -408 122 -865 64 -456 118 -832 120 -834 2 -2
6 -2 8 0 2 2 59 136 125 298 l121 294 -20 22 c-24 26 -26 57 -4 93 15 26 12
34 -149 362 -289 588 -329 667 -323 630z"/>
<path d="M10092 3879 c-230 -352 -241 -372 -227 -392 22 -32 18 -70 -10 -97
-20 -19 -31 -22 -62 -16 l-38 7 -297 -303 c-163 -167 -295 -304 -293 -306 1
-2 299 159 661 356 641 350 659 360 665 392 4 19 14 39 22 45 12 9 4 55 -58
320 -39 171 -75 322 -78 338 -5 16 -14 27 -25 27 -11 0 -96 -121 -260 -371z"/>
<path d="M10616 3461 c-4 -6 -21 -14 -38 -19 -28 -7 -34 -18 -98 -177 -37 -94
-232 -584 -434 -1091 -201 -507 -366 -926 -366 -933 0 -6 7 -11 16 -11 15 0
298 102 2674 963 1357 492 1210 437 1185 448 -17 8 -2830 805 -2906 824 -15 4
-30 2 -33 -4z"/>
<path d="M9820 3086 c-534 -291 -686 -378 -688 -394 -2 -11 -10 -26 -18 -32
-8 -7 -14 -17 -14 -23 0 -26 525 -1377 535 -1377 6 0 175 411 375 913 502
1260 509 1276 501 1281 -4 3 -315 -163 -691 -368z"/>
<path d="M9410 3400 c-6 -11 -21 -22 -33 -25 -18 -5 -42 -55 -140 -293 -64
-158 -117 -291 -117 -295 0 -5 89 83 197 195 109 112 249 256 312 321 l115
117 -162 0 c-151 0 -162 -1 -172 -20z"/>
<path d="M9035 2599 c-59 -128 -922 -2054 -921 -2056 1 -1 326 139 721 311
670 292 720 316 728 342 6 16 14 34 19 41 6 8 -77 237 -252 695 -144 376 -266
687 -270 692 -5 5 -16 -5 -25 -25z"/>
<path d="M12465 2193 c-610 -221 -1465 -531 -1900 -689 -434 -158 -797 -290
-805 -294 -7 -5 33 -6 90 -4 58 2 638 16 1290 30 l1185 25 145 97 c362 243
737 545 1053 848 l107 103 0 124 c0 123 0 123 -27 143 l-28 20 -1110 -403z"/>
<path d="M13668 2569 c-15 -9 -18 -26 -18 -119 0 -61 4 -110 9 -110 5 0 42 37
83 83 l75 82 -59 38 c-65 41 -65 41 -90 26z"/>
<path d="M10955 1198 c-687 -16 -1252 -31 -1253 -33 -19 -19 20 -93 237 -450
133 -220 246 -404 251 -408 8 -9 228 55 412 119 527 183 1035 420 1498 696
188 113 182 108 140 107 -19 -1 -597 -15 -1285 -31z"/>
<path d="M8980 584 c-333 -294 -616 -546 -630 -560 l-25 -24 90 5 c478 32 836
78 1210 155 169 35 502 117 519 128 8 5 -67 136 -223 393 -130 212 -243 395
-251 406 -8 12 -31 23 -50 27 -34 5 -46 -5 -640 -530z"/>
</g>
</svg>
